<svg width="24" height="24" viewBox="0 0 24 24" fill="none" xmlns="http://www.w3.org/2000/svg">
<g id="vuesax/linear/bag-2">
<g id="Group 637472">
<path id="Vector" d="M2.0836 11.91C2.08303 13.6566 2.54143 15.3617 3.4128 16.8646L2 22L7.27897 20.622C8.73354 21.4115 10.3712 21.8278 12.0376 21.8284H12.0419C17.53 21.8284 21.9977 17.3821 22 11.9179C22.0009 9.26975 20.9659 6.77957 19.0859 4.90635C17.2057 3.03334 14.7057 2.00109 12.0419 2C6.5528 2 2.08577 6.44573 2.0836 11.91ZM5.22737 16.6058L5.03023 16.2943C4.20166 14.9827 3.76429 13.467 3.76491 11.9106C3.76674 7.36883 7.47954 3.67376 12.045 3.67376C14.2559 3.67468 16.3338 4.53272 17.8966 6.08946C19.4593 7.64644 20.3192 9.71608 20.3187 11.9173C20.3166 16.4591 16.6038 20.1546 12.0419 20.1546H12.0386C10.5532 20.1538 9.0964 19.7567 7.82594 19.0062L7.5236 18.8277L4.39091 19.6454L5.22737 16.6058Z" fill="#1FAF38"/>
<path id="Vector_2" d="M9.54236 7.46457C9.35805 7.02285 9.16401 7.01388 8.98868 7.00615C8.84515 6.99952 8.68112 7.00001 8.5172 7.00001C8.35311 7.00001 8.08653 7.06657 7.86119 7.33188C7.63562 7.59738 7 8.23915 7 9.54429C7 10.8496 7.88158 12.1109 8.00448 12.2881C8.12755 12.4649 9.70662 15.229 12.2074 16.2923C14.2858 17.176 14.7088 17.0003 15.1599 16.956C15.6111 16.9118 16.6156 16.3145 16.8205 15.695C17.0256 15.0756 17.0257 14.5446 16.9642 14.4337C16.9027 14.3231 16.7386 14.2568 16.4926 14.1241C16.2465 13.9915 15.0367 13.3497 14.8113 13.2612C14.5857 13.1727 14.4218 13.1285 14.2577 13.3941C14.0936 13.6594 13.6224 14.2568 13.4787 14.4337C13.3353 14.6111 13.1918 14.6331 12.9457 14.5004C12.6996 14.3673 11.9072 14.0875 10.9671 13.1838C10.2357 12.4806 9.74188 11.6123 9.59836 11.3467C9.45484 11.0814 9.58299 10.9377 9.70634 10.8055C9.81692 10.6866 9.95242 10.4957 10.0755 10.3408C10.1982 10.1859 10.2392 10.0754 10.3213 9.89845C10.4034 9.72137 10.3623 9.56646 10.3009 9.43377C10.2392 9.30108 9.76115 7.98906 9.54236 7.46457Z" fill="#1FAF38"/>
</g>
</g>
</svg>
