<svg width="30" height="30" viewBox="0 0 30 30" fill="none" xmlns="http://www.w3.org/2000/svg">
<rect width="30" height="30" rx="2" fill="#ED1C24"/>
<path fill-rule="evenodd" clip-rule="evenodd" d="M11.8842 22.4498H18.1226C20.4141 22.4498 22.1721 21.5913 21.6727 18.1361L21.0913 13.4534C20.7835 11.7293 19.7232 11.0695 18.793 11.0695H11.1865C10.2426 11.0695 9.24386 11.779 8.88817 13.4534L8.30674 18.1361C7.88264 21.2011 9.59272 22.4498 11.8842 22.4498Z" stroke="white" stroke-linecap="round" stroke-linejoin="round"/>
<path d="M11.7816 10.8992C11.7816 9.04965 13.2271 7.55032 15.0103 7.55032V7.55032C15.8689 7.54655 16.6937 7.8977 17.3021 8.52614C17.9105 9.15458 18.2526 10.0085 18.2526 10.8992V10.8992" stroke="white" stroke-linecap="round" stroke-linejoin="round"/>
<path d="M12.794 14.3899H12.8282" stroke="white" stroke-width="1.5" stroke-linecap="round" stroke-linejoin="round"/>
<path d="M17.1513 14.3899H17.1855" stroke="white" stroke-width="1.5" stroke-linecap="round" stroke-linejoin="round"/>
</svg>
