<svg width="52" height="13" viewBox="0 0 52 13" fill="none" xmlns="http://www.w3.org/2000/svg">
<rect width="52" height="13" rx="1" fill="#DBDFF7"/>
<path d="M7.152 9L9.64 3.36H10.2L12.688 9H12.008L11.384 7.56H8.448L7.832 9H7.152ZM9.912 4.128L8.688 7.008H11.152L9.928 4.128H9.912ZM13.4681 9V5.112H15.3641C15.8228 5.112 16.1615 5.2 16.3801 5.376C16.5988 5.54667 16.7081 5.8 16.7081 6.136C16.7081 6.33867 16.6495 6.51467 16.5321 6.664C16.4201 6.81333 16.2655 6.92267 16.0681 6.992C16.3081 7.05067 16.4948 7.16267 16.6281 7.328C16.7668 7.49333 16.8361 7.69333 16.8361 7.928C16.8361 8.25867 16.7135 8.52 16.4681 8.712C16.2228 8.904 15.8761 9 15.4281 9H13.4681ZM14.0841 6.8H15.3321C15.5775 6.8 15.7668 6.74667 15.9001 6.64C16.0335 6.528 16.1001 6.37067 16.1001 6.168C16.1001 5.97067 16.0335 5.81867 15.9001 5.712C15.7668 5.60533 15.5775 5.552 15.3321 5.552H14.0841V6.8ZM14.0841 8.56H15.4041C15.6708 8.56 15.8735 8.504 16.0121 8.392C16.1508 8.28 16.2201 8.11467 16.2201 7.896C16.2201 7.68267 16.1508 7.52 16.0121 7.408C15.8735 7.296 15.6708 7.24 15.4041 7.24H14.0841V8.56ZM19.0751 9.072C18.8085 9.072 18.5685 9.02133 18.3551 8.92C18.1471 8.81333 17.9818 8.66933 17.8591 8.488C17.7365 8.30667 17.6751 8.104 17.6751 7.88C17.6751 7.59733 17.7471 7.37333 17.8911 7.208C18.0405 7.04267 18.2831 6.92533 18.6191 6.856C18.9605 6.78133 19.4245 6.744 20.0111 6.744H20.2671V6.496C20.2671 6.16533 20.1978 5.928 20.0591 5.784C19.9258 5.63467 19.7098 5.56 19.4111 5.56C19.1765 5.56 18.9498 5.59467 18.7311 5.664C18.5125 5.728 18.2885 5.83467 18.0591 5.984L17.8351 5.512C18.0378 5.368 18.2831 5.25333 18.5711 5.168C18.8645 5.08267 19.1445 5.04 19.4111 5.04C19.9125 5.04 20.2831 5.16267 20.5231 5.408C20.7685 5.65333 20.8911 6.03467 20.8911 6.552V9H20.2831V8.328C20.1818 8.55733 20.0245 8.73867 19.8111 8.872C19.6031 9.00533 19.3578 9.072 19.0751 9.072ZM19.1791 8.584C19.4991 8.584 19.7605 8.47467 19.9631 8.256C20.1658 8.032 20.2671 7.74933 20.2671 7.408V7.168H20.0191C19.5871 7.168 19.2458 7.18933 18.9951 7.232C18.7498 7.26933 18.5765 7.33867 18.4751 7.44C18.3791 7.536 18.3311 7.66933 18.3311 7.84C18.3311 8.05867 18.4058 8.23733 18.5551 8.376C18.7098 8.51467 18.9178 8.584 19.1791 8.584ZM22.1556 9V5.112H22.8036V6.728H24.9236V5.112H25.5716V9H24.9236V7.256H22.8036V9H22.1556ZM28.5069 9.072C28.1176 9.072 27.7816 8.98933 27.4989 8.824C27.2163 8.65333 26.9976 8.416 26.8429 8.112C26.6936 7.80267 26.6189 7.44267 26.6189 7.032C26.6189 6.41333 26.7869 5.928 27.1229 5.576C27.4589 5.21867 27.9203 5.04 28.5069 5.04C28.7469 5.04 28.9843 5.08267 29.2189 5.168C29.4536 5.25333 29.6483 5.37333 29.8029 5.528L29.5789 6C29.4243 5.85067 29.2536 5.74133 29.0669 5.672C28.8856 5.60267 28.7123 5.568 28.5469 5.568C28.1416 5.568 27.8296 5.696 27.6109 5.952C27.3923 6.20267 27.2829 6.56533 27.2829 7.04C27.2829 7.504 27.3923 7.872 27.6109 8.144C27.8296 8.41067 28.1416 8.544 28.5469 8.544C28.7123 8.544 28.8856 8.50933 29.0669 8.44C29.2536 8.37067 29.4243 8.25867 29.5789 8.104L29.8029 8.576C29.6483 8.73067 29.4509 8.85333 29.2109 8.944C28.9763 9.02933 28.7416 9.072 28.5069 9.072ZM34.4469 9.072C33.8015 9.072 33.3109 8.824 32.9749 8.328C32.6389 7.832 32.4709 7.11467 32.4709 6.176C32.4709 5.232 32.6389 4.51467 32.9749 4.024C33.3109 3.53333 33.8015 3.288 34.4469 3.288C35.0975 3.288 35.5882 3.53333 35.9189 4.024C36.2549 4.50933 36.4229 5.224 36.4229 6.168C36.4229 7.112 36.2522 7.832 35.9109 8.328C35.5749 8.824 35.0869 9.072 34.4469 9.072ZM34.4469 8.504C34.8949 8.504 35.2255 8.31467 35.4389 7.936C35.6575 7.55733 35.7669 6.968 35.7669 6.168C35.7669 5.368 35.6602 4.784 35.4469 4.416C35.2335 4.04267 34.9002 3.856 34.4469 3.856C33.9989 3.856 33.6655 4.04267 33.4469 4.416C33.2335 4.78933 33.1269 5.37333 33.1269 6.168C33.1269 6.968 33.2335 7.55733 33.4469 7.936C33.6655 8.31467 33.9989 8.504 34.4469 8.504ZM39.1318 9.2L38.6758 8.936L41.9958 3.16L42.4438 3.424L39.1318 9.2ZM38.6518 6.744C38.2251 6.744 37.8918 6.592 37.6518 6.288C37.4118 5.984 37.2918 5.56 37.2918 5.016C37.2918 4.472 37.4118 4.05067 37.6518 3.752C37.8918 3.448 38.2251 3.296 38.6518 3.296C39.0731 3.296 39.4038 3.448 39.6438 3.752C39.8891 4.05067 40.0118 4.472 40.0118 5.016C40.0118 5.56 39.8891 5.984 39.6438 6.288C39.4038 6.592 39.0731 6.744 38.6518 6.744ZM38.6518 6.272C38.8971 6.272 39.0918 6.168 39.2358 5.96C39.3798 5.74667 39.4518 5.432 39.4518 5.016C39.4518 4.6 39.3798 4.288 39.2358 4.08C39.0918 3.872 38.8971 3.768 38.6518 3.768C38.4011 3.768 38.2038 3.872 38.0598 4.08C37.9211 4.288 37.8518 4.6 37.8518 5.016C37.8518 5.432 37.9211 5.74667 38.0598 5.96C38.2038 6.168 38.4011 6.272 38.6518 6.272ZM42.4758 9.072C42.0544 9.072 41.7211 8.92 41.4758 8.616C41.2358 8.312 41.1158 7.888 41.1158 7.344C41.1158 6.80533 41.2358 6.384 41.4758 6.08C41.7211 5.776 42.0544 5.624 42.4758 5.624C42.9024 5.624 43.2358 5.776 43.4758 6.08C43.7158 6.384 43.8358 6.80533 43.8358 7.344C43.8358 7.888 43.7158 8.312 43.4758 8.616C43.2358 8.92 42.9024 9.072 42.4758 9.072ZM42.4758 8.6C42.7264 8.6 42.9211 8.496 43.0598 8.288C43.2038 8.07467 43.2758 7.76 43.2758 7.344C43.2758 6.928 43.2038 6.616 43.0598 6.408C42.9211 6.2 42.7264 6.096 42.4758 6.096C42.2304 6.096 42.0358 6.2 41.8918 6.408C41.7531 6.616 41.6838 6.928 41.6838 7.344C41.6838 7.76533 41.7531 8.08 41.8918 8.288C42.0358 8.496 42.2304 8.6 42.4758 8.6Z" fill="#656878"/>
</svg>
