<svg width="75" height="13" viewBox="0 0 75 13" fill="none" xmlns="http://www.w3.org/2000/svg">
<rect width="75" height="13" rx="1" fill="#DBDFF7"/>
<path d="M7.448 9.12L7.136 8.6C7.34933 8.488 7.53867 8.352 7.704 8.192C7.86933 8.032 8.01067 7.82133 8.128 7.56C8.24533 7.29867 8.336 6.968 8.4 6.568C8.464 6.16267 8.496 5.65867 8.496 5.056V3.36H12.232V9H11.568V3.928H9.104V5.224C9.104 6.008 9.04 6.656 8.912 7.168C8.784 7.67467 8.59467 8.08267 8.344 8.392C8.09867 8.70133 7.8 8.944 7.448 9.12ZM13.5697 9V5.112H14.1617V8.12L16.4097 5.112H16.9617V9H16.3697V5.992L14.1217 9H13.5697ZM19.5296 9.072C19.1936 9.072 18.8762 9.02933 18.5776 8.944C18.2842 8.85333 18.0469 8.728 17.8656 8.568L18.0736 8.112C18.2602 8.26133 18.4789 8.376 18.7296 8.456C18.9802 8.53067 19.2416 8.568 19.5136 8.568C19.8976 8.568 20.1722 8.512 20.3376 8.4C20.5082 8.288 20.5936 8.12267 20.5936 7.904C20.5936 7.48267 20.3242 7.272 19.7856 7.272H18.8656V6.784H19.7056C19.9349 6.784 20.1162 6.73067 20.2496 6.624C20.3882 6.51733 20.4576 6.368 20.4576 6.176C20.4576 5.984 20.3829 5.832 20.2336 5.72C20.0842 5.60267 19.8442 5.544 19.5136 5.544C18.9962 5.544 18.5376 5.68533 18.1376 5.968L17.9296 5.512C18.3669 5.19733 18.9216 5.04 19.5936 5.04C20.0896 5.04 20.4602 5.136 20.7056 5.328C20.9509 5.52 21.0736 5.78933 21.0736 6.136C21.0736 6.33333 21.0149 6.50933 20.8976 6.664C20.7856 6.81333 20.6309 6.92267 20.4336 6.992C20.6736 7.05067 20.8629 7.16267 21.0016 7.328C21.1402 7.488 21.2096 7.688 21.2096 7.928C21.2096 8.27467 21.0682 8.552 20.7856 8.76C20.5029 8.968 20.0842 9.072 19.5296 9.072ZM22.2181 9V5.112H22.8101V8.12L25.0581 5.112H25.6101V9H25.0181V5.992L22.7701 9H22.2181ZM26.89 9V5.112H27.538V6.728H29.658V5.112H30.306V9H29.658V7.256H27.538V9H26.89ZM31.5853 9V5.112H34.3133V5.632H32.2333V9H31.5853ZM36.6926 10.04V8.48H37.1006C37.2872 8.208 37.4206 7.896 37.5006 7.544C37.5806 7.18667 37.6206 6.75733 37.6206 6.256V5.112H40.3726V8.48H40.9886V10.04H40.4286V9H37.2446V10.04H36.6926ZM37.7246 8.48H39.7566V5.624H38.1966V6.368C38.1966 6.768 38.1566 7.15467 38.0766 7.528C37.9966 7.90133 37.8792 8.21867 37.7246 8.48ZM43.4749 9.072C43.0963 9.072 42.7683 8.98933 42.4909 8.824C42.2136 8.65867 41.9976 8.42667 41.8429 8.128C41.6936 7.824 41.6189 7.46667 41.6189 7.056C41.6189 6.64533 41.6936 6.29067 41.8429 5.992C41.9976 5.688 42.2136 5.45333 42.4909 5.288C42.7683 5.12267 43.0963 5.04 43.4749 5.04C43.8483 5.04 44.1736 5.12267 44.4509 5.288C44.7336 5.45333 44.9496 5.688 45.0989 5.992C45.2536 6.29067 45.3309 6.64533 45.3309 7.056C45.3309 7.46667 45.2536 7.824 45.0989 8.128C44.9496 8.42667 44.7336 8.65867 44.4509 8.824C44.1736 8.98933 43.8483 9.072 43.4749 9.072ZM43.4749 8.552C43.8376 8.552 44.1283 8.424 44.3469 8.168C44.5656 7.90667 44.6749 7.536 44.6749 7.056C44.6749 6.57067 44.5656 6.2 44.3469 5.944C44.1283 5.688 43.8376 5.56 43.4749 5.56C43.1069 5.56 42.8136 5.688 42.5949 5.944C42.3816 6.2 42.2749 6.57067 42.2749 7.056C42.2749 7.536 42.3816 7.90667 42.5949 8.168C42.8136 8.424 43.1069 8.552 43.4749 8.552ZM48.6929 9L51.3169 3.928H48.3329V3.36H52.0609V3.856L49.4209 9H48.6929ZM55.0724 9.088L54.8324 8.576C55.0724 8.47467 55.2618 8.33333 55.4004 8.152C55.5391 7.96533 55.6351 7.70933 55.6884 7.384C55.7471 7.05867 55.7764 6.632 55.7764 6.104V5.112H58.6004V9H57.9524V5.632H56.3844V6.128C56.3844 6.736 56.3391 7.23733 56.2484 7.632C56.1631 8.02667 56.0244 8.33867 55.8324 8.568C55.6404 8.79733 55.3871 8.97067 55.0724 9.088ZM61.6422 9.072C61.0289 9.072 60.5435 8.89333 60.1862 8.536C59.8289 8.17333 59.6502 7.68267 59.6502 7.064C59.6502 6.664 59.7302 6.312 59.8902 6.008C60.0502 5.69867 60.2689 5.46133 60.5462 5.296C60.8289 5.12533 61.1542 5.04 61.5222 5.04C62.0502 5.04 62.4635 5.21067 62.7622 5.552C63.0609 5.888 63.2102 6.352 63.2102 6.944V7.192H60.2822C60.3035 7.63467 60.4315 7.97333 60.6662 8.208C60.9009 8.43733 61.2262 8.552 61.6422 8.552C61.8769 8.552 62.1009 8.51733 62.3142 8.448C62.5275 8.37333 62.7302 8.25333 62.9222 8.088L63.1462 8.544C62.9702 8.70933 62.7462 8.84 62.4742 8.936C62.2022 9.02667 61.9249 9.072 61.6422 9.072ZM61.5382 5.52C61.1702 5.52 60.8795 5.63467 60.6662 5.864C60.4529 6.09333 60.3275 6.39467 60.2902 6.768H62.6502C62.6342 6.37333 62.5302 6.06667 62.3382 5.848C62.1515 5.62933 61.8849 5.52 61.5382 5.52ZM65.0261 9V5.632H63.6181V5.112H67.0901V5.632H65.6741V9H65.0261Z" fill="#656878"/>
</svg>
