<svg width="36" height="36" viewBox="0 0 36 36" fill="none" xmlns="http://www.w3.org/2000/svg">
<g id="Group 637345661" opacity="0.4">
<g id="Group">
<path id="Vector" d="M31.6922 4.29994L32.8114 15.0199C32.8914 15.8099 32.6216 16.5899 32.052 17.1499L14.9832 34.2299C13.9539 35.2599 12.295 35.2599 11.2657 34.2299L1.77199 24.7299C0.74267 23.6999 0.74267 22.0399 1.77199 21.0099L18.8407 3.92993C19.4003 3.36993 20.1798 3.08994 20.9693 3.16994L27.375 3.83994" stroke="#14121A" stroke-width="1.3" stroke-linecap="round" stroke-linejoin="round"/>
<path id="Vector_2" d="M34.9991 1L26.8045 9.12C27.1943 9.58 27.3942 10.13 27.3942 10.78C27.3942 12.24 26.2049 13.43 24.7459 13.43C23.2869 13.43 22.0977 12.24 22.0977 10.78C22.0977 9.53 22.9671 8.48 24.1263 8.2" stroke="#14121A" stroke-width="1.3" stroke-linecap="round" stroke-linejoin="round"/>
<path id="Vector_3" d="M8.24805 20.79L21.6092 21.8201" stroke="#14121A" stroke-width="1.3" stroke-linecap="round" stroke-linejoin="round"/>
<path id="Vector_4" d="M15.0123 28C16.1162 28 17.011 27.1046 17.011 26C17.011 24.8954 16.1162 24 15.0123 24C13.9085 24 13.0137 24.8954 13.0137 26C13.0137 27.1046 13.9085 28 15.0123 28Z" stroke="#14121A" stroke-width="1.3" stroke-linecap="round" stroke-linejoin="round"/>
<path id="Vector_5" d="M15.0123 18C16.1162 18 17.011 17.1046 17.011 16C17.011 14.8954 16.1162 14 15.0123 14C13.9085 14 13.0137 14.8954 13.0137 16C13.0137 17.1046 13.9085 18 15.0123 18Z" stroke="#14121A" stroke-width="1.3" stroke-linecap="round" stroke-linejoin="round"/>
</g>
</g>
</svg>
