<svg width="34" height="34" viewBox="0 0 34 34" fill="none" xmlns="http://www.w3.org/2000/svg">
<g id="Group 637345664" opacity="0.4">
<path id="Vector" d="M17 34C12.4592 34 8.19002 32.2317 4.97917 29.0208C1.76833 25.81 0 21.5408 0 17C0 12.4592 1.76833 8.19002 4.97917 4.97917C8.19002 1.76833 12.4592 0 17 0C21.2311 0 25.2857 1.56418 28.4172 4.40434C28.6239 4.59189 28.6395 4.91121 28.4522 5.11769C28.2649 5.32417 27.9456 5.34 27.7389 5.15245C24.7937 2.48116 20.9797 1.00984 17 1.00984C12.729 1.00984 8.71349 2.67311 5.6933 5.6933C2.67311 8.71349 1.00984 12.729 1.00984 17C1.00984 21.271 2.67311 25.2865 5.6933 28.3067C8.71349 31.3269 12.729 32.9902 17 32.9902C21.271 32.9902 25.2865 31.3269 28.3067 28.3067C31.3269 25.2865 32.9902 21.271 32.9902 17C32.9902 13.1972 31.6322 9.51218 29.1669 6.62402C28.9858 6.41209 29.011 6.09329 29.2232 5.91223C29.4353 5.73117 29.7542 5.75633 29.935 5.96826C32.5564 9.03929 34 12.957 34 17C34 21.5408 32.2317 25.81 29.0208 29.0208C25.81 32.2317 21.5408 34 17 34Z" fill="#14121A"/>
<path id="Vector_2" d="M17.0005 28.9451C15.3881 28.9451 13.8234 28.6292 12.3506 28.0061C12.0938 27.8976 11.9734 27.6014 12.0821 27.3443C12.1908 27.0875 12.487 26.9674 12.7438 27.0761C14.0919 27.646 15.524 27.9353 17.0005 27.9353C23.0303 27.9353 27.9358 23.0298 27.9358 17C27.9358 10.9703 23.0303 6.06477 17.0005 6.06477C10.9706 6.06477 6.06453 10.9703 6.06453 17C6.06453 20.7556 7.95763 24.2051 11.1288 26.2271C11.3638 26.377 11.4328 26.6891 11.2829 26.9241C11.1332 27.1594 10.8209 27.2284 10.5859 27.0785C7.12236 24.8699 5.05469 21.1024 5.05469 17C5.05469 10.4133 10.4136 5.05493 17.0005 5.05493C23.587 5.05493 28.9456 10.4133 28.9456 17C28.9456 23.5864 23.587 28.9451 17.0005 28.9451Z" fill="#14121A"/>
<path id="Vector_3" d="M17 13.746C16.5829 13.746 16.2029 13.5522 15.9575 13.2147L13.3036 9.56161C13.0582 9.22336 12.9918 8.80209 13.1212 8.40495C13.2507 8.00781 13.5529 7.70587 13.9503 7.57721C13.9505 7.57721 13.9505 7.57695 13.9508 7.57695C14.9339 7.2597 15.9596 7.09888 16.9995 7.09888C18.0412 7.09888 19.0674 7.25996 20.05 7.57773C20.4422 7.70483 20.7522 8.01456 20.8796 8.40651C21.0085 8.80339 20.9416 9.22466 20.6959 9.56187L18.0423 13.2145C17.7969 13.5522 17.4171 13.746 17 13.746ZM14.2615 8.53777C14.1432 8.57616 14.0979 8.66695 14.0812 8.71779C14.0649 8.76837 14.048 8.86798 14.1207 8.96811L16.7746 12.621C16.8472 12.7211 16.9468 12.7361 16.9998 12.7361C17.0527 12.7361 17.1525 12.7211 17.2252 12.621L19.8791 8.96785C19.952 8.86798 19.9354 8.76889 19.919 8.71857C19.9024 8.66772 19.857 8.57693 19.7388 8.53854C18.8571 8.25346 17.9354 8.10872 16.9995 8.10872C16.0654 8.10872 15.1443 8.25294 14.2615 8.53777Z" fill="#14121A"/>
<path id="Vector_4" d="M8.37909 18.2824C8.11087 18.2824 7.84499 18.1986 7.6232 18.0375C7.28961 17.7957 7.09818 17.4217 7.09766 17.0113V16.9999C7.09766 14.8933 7.75005 12.8825 8.98453 11.185C9.22914 10.8483 9.60838 10.6555 10.0247 10.6555H10.025C10.4426 10.6555 10.8226 10.8493 11.0678 11.187L13.7212 14.8396C13.9663 15.1763 14.0332 15.5973 13.9043 15.9942C13.7756 16.3911 13.4742 16.6928 13.0773 16.8217L8.7739 18.2201C8.64497 18.2619 8.5119 18.2824 8.37909 18.2824ZM10.0247 11.6654C9.97206 11.6654 9.87297 11.6801 9.80112 11.7787C8.69322 13.3027 8.1075 15.1081 8.1075 16.9999V17.0105C8.10776 17.1244 8.17572 17.1908 8.21645 17.2204C8.25043 17.245 8.34251 17.2982 8.46184 17.2596L12.7653 15.8611C12.8825 15.823 12.9274 15.7327 12.9437 15.6824C12.9601 15.6321 12.9767 15.5327 12.9043 15.4334L10.2507 11.7805C10.178 11.6804 10.0779 11.6654 10.0247 11.6654Z" fill="#14121A"/>
<path id="Vector_5" d="M14.3278 26.478C14.1929 26.478 14.0578 26.457 13.9268 26.4145C11.9416 25.767 10.2374 24.5284 8.9982 22.8322C8.75463 22.4983 8.68537 22.0651 8.81247 21.6724C8.9414 21.2753 9.24282 20.9736 9.63996 20.8449L13.9325 19.4499C14.3289 19.3207 14.7499 19.3871 15.0873 19.6322C15.4253 19.8774 15.6189 20.2574 15.6189 20.6747V25.1909C15.6189 25.6077 15.4256 25.9872 15.0886 26.2319C14.8656 26.3937 14.5981 26.478 14.3278 26.478ZM14.3328 20.3959C14.3058 20.3959 14.2765 20.4 14.2451 20.4102L9.95202 21.8055C9.83451 21.8436 9.78963 21.9336 9.77329 21.9839C9.76006 22.0249 9.73723 22.1318 9.81402 22.2366C10.9113 23.7385 12.483 24.8814 14.2396 25.4544C14.3649 25.4952 14.4601 25.4402 14.4951 25.4148C14.5377 25.3839 14.609 25.3138 14.609 25.1912V20.6747C14.609 20.5513 14.5372 20.4807 14.4941 20.4496C14.463 20.4268 14.4067 20.3959 14.3328 20.3959Z" fill="#14121A"/>
<path id="Vector_6" d="M16.9994 19.3428C15.7073 19.3428 14.6562 18.2917 14.6562 16.9999C14.6562 15.7078 15.7073 14.6567 16.9994 14.6567C18.2912 14.6567 19.3423 15.7078 19.3423 16.9999C19.3423 18.2917 18.2912 19.3428 16.9994 19.3428ZM16.9994 15.6668C16.2643 15.6668 15.6664 16.2648 15.6664 16.9999C15.6664 17.7348 16.2643 18.3329 16.9994 18.3329C17.7343 18.3329 18.3325 17.7348 18.3325 16.9999C18.3325 16.2648 17.7345 15.6668 16.9994 15.6668Z" fill="#14121A"/>
<path id="Vector_7" d="M19.6729 26.478C19.4023 26.478 19.1346 26.3937 18.9115 26.2318C18.5746 25.9869 18.381 25.6077 18.381 25.1908V20.6747C18.381 20.2576 18.5748 19.8775 18.9126 19.6324C19.2505 19.3873 19.6718 19.3206 20.0684 19.4498L24.361 20.8448C24.7579 20.9735 25.0595 21.2752 25.1882 21.6723C25.3153 22.0651 25.2458 22.4983 25.0025 22.8318C23.7825 24.5034 22.0323 25.7755 20.0741 26.4142C19.9431 26.457 19.8077 26.478 19.6729 26.478ZM19.6677 20.3958C19.5937 20.3958 19.5372 20.427 19.5058 20.4495C19.463 20.4809 19.3909 20.5515 19.3909 20.6747V25.1908C19.3909 25.3135 19.4622 25.3836 19.5048 25.4144C19.54 25.4398 19.6358 25.4951 19.761 25.4541C21.519 24.8808 23.091 23.7382 24.1869 22.2365C24.2634 22.1317 24.2406 22.0249 24.2274 21.9839C24.211 21.9335 24.1662 21.8433 24.0489 21.8054L19.7561 20.4104C19.7245 20.4 19.6949 20.3958 19.6677 20.3958Z" fill="#14121A"/>
<path id="Vector_8" d="M25.6198 18.2824C25.487 18.2824 25.3537 18.2619 25.225 18.2201L20.9208 16.8217C20.5242 16.6931 20.2228 16.3916 20.0938 15.995C19.9647 15.5981 20.0313 15.1771 20.2765 14.8396L22.9304 11.187C23.1755 10.8493 23.5555 10.6555 23.9732 10.6553H23.9734C24.39 10.6553 24.769 10.8483 25.0136 11.1847C26.2486 12.883 26.9013 14.8939 26.9013 16.9999V17.0106C26.9007 17.4217 26.709 17.7958 26.3757 18.0375C26.1539 18.1986 25.888 18.2824 25.6198 18.2824ZM25.5371 17.2596C25.6564 17.2985 25.7485 17.2451 25.7825 17.2204C25.8232 17.1908 25.8912 17.1244 25.8912 17.01V16.9999C25.8912 15.1086 25.3054 13.3032 24.197 11.7787C24.1252 11.6802 24.0261 11.6654 23.9734 11.6654C23.9202 11.6654 23.8204 11.6804 23.7475 11.7805L21.0936 15.4332C21.0212 15.5328 21.0378 15.6321 21.0541 15.6827C21.0705 15.733 21.1156 15.823 21.2326 15.8609L25.5371 17.2596Z" fill="#14121A"/>
<path id="Vector_9" d="M13.1799 18.8655C12.9685 18.8655 12.7765 18.7286 12.7049 18.5307C12.632 18.3291 12.6995 18.0967 12.8676 17.9639C13.2273 17.6796 13.7651 18.009 13.6748 18.4593C13.6279 18.6928 13.418 18.8655 13.1799 18.8655Z" fill="#14121A"/>
<path id="Vector_10" d="M20.8187 18.8657C20.3696 18.8657 20.1458 18.2961 20.4763 17.99C20.8168 17.6746 21.3893 17.9726 21.3185 18.4349C21.2812 18.6792 21.0664 18.8657 20.8187 18.8657Z" fill="#14121A"/>
<path id="Vector_11" d="M14.5648 14.2592C14.3445 14.2592 14.1461 14.1111 14.0818 13.901C14.0206 13.6999 14.095 13.4748 14.2634 13.3495C14.6211 13.0828 15.1391 13.3998 15.0618 13.8408C15.0198 14.0797 14.8081 14.2592 14.5648 14.2592Z" fill="#14121A"/>
<path id="Vector_12" d="M19.106 14.2593C18.6541 14.2593 18.4318 13.6832 18.7669 13.3805C18.9301 13.2331 19.1765 13.2088 19.3654 13.3216C19.5425 13.4277 19.6388 13.6375 19.603 13.8409C19.561 14.0798 19.349 14.2593 19.106 14.2593Z" fill="#14121A"/>
<path id="Vector_13" d="M17 21.4976C16.7845 21.4976 16.5881 21.3557 16.5209 21.151C16.4553 20.951 16.5227 20.7245 16.6893 20.5948C17.0522 20.3124 17.5896 20.6465 17.4942 21.0968C17.4451 21.3271 17.2363 21.4976 17 21.4976Z" fill="#14121A"/>
</g>
</svg>
