<svg width="24" height="24" viewBox="0 0 24 24" fill="none" xmlns="http://www.w3.org/2000/svg">
<g id="Frame 1221213682">
<path id="Vector" fill-rule="evenodd" clip-rule="evenodd" d="M20.4272 14.4024C19.3494 14.4024 18.473 15.2892 18.473 16.3837C18.473 17.4781 19.3494 18.3649 20.4272 18.3649C21.505 18.3649 22.3878 17.4781 22.3878 16.3837C22.3878 15.2892 21.5113 14.4024 20.4272 14.4024ZM1.31082 11.1692L1.6591 12.2546H1.31082V11.1692ZM2.79008 12.2546H3.56011L2.25309 8.15378H1.48306L2.79008 12.2546ZM7.96622 8.15378L9.27578 12.2546H8.50575L7.19367 8.15378H7.96622ZM10.4068 12.2546H11.1793L9.86976 8.15378H9.09974L10.4068 12.2546ZM6.06143 8.15378H5.2914L6.59842 12.2546H7.37098L6.06143 8.15378ZM4.15662 8.15378L5.46617 12.2546H4.69615L3.38406 8.15378H4.15662ZM11.5719 9.93508L11.0007 8.15378H11.6492L11.5719 9.93508ZM10.6525 6.48141L7.55208 2.97647C7.06828 2.54076 6.56929 2.58689 6.05129 2.97647L2.03272 6.48141H10.6525ZM11.71 6.83126L11.7657 5.59973H18.0285V6.65057H14.0682L13.7579 13.5771H7.60654C7.87757 13.8001 8.11694 14.0628 8.31325 14.3563H14.5342L14.8585 7.46305C16.7709 7.51431 18.3806 7.59248 19.2038 7.71038L21.2492 10.6399L22.5613 11.0961C22.6626 11.2922 22.7525 11.4883 22.8323 11.6843H22.2687V12.6647H23.1401C23.1932 12.871 23.2464 13.1184 23.2616 13.2645C23.4655 13.326 23.6707 13.3849 23.8721 13.4477C23.8088 13.7912 23.7872 14.5498 23.734 15.0112C23.9037 15.4353 24 15.898 24 16.3824C24 18.379 22.4004 20.0001 20.4247 20.0001C18.449 20.0001 16.8519 18.3802 16.8519 16.3824C16.8519 16.2106 16.8659 16.0415 16.8861 15.8749H14.5431L14.2189 16.6028H8.91736C8.80591 18.4969 7.25193 20.0001 5.34966 20.0001C3.44739 20.0001 1.77689 18.3802 1.77689 16.3824C1.77689 16.162 1.79588 15.9467 1.83261 15.7378L1.17657 15.5417C1.1601 15.147 1.14491 14.751 1.12591 14.3563H2.38987C2.58617 14.0628 2.82301 13.8001 3.09404 13.5771H-1.90735e-06V6.83126H11.7074H11.71ZM5.35092 14.4024C4.26934 14.4024 3.39293 15.2892 3.39293 16.3837C3.39293 17.4781 4.26934 18.3649 5.35092 18.3649C6.43251 18.3649 7.30892 17.4781 7.30892 16.3837C7.30892 15.2892 6.43251 14.4024 5.35092 14.4024ZM20.3069 11.1179C19.9561 10.4195 19.01 8.9496 18.6288 8.35754C17.8474 8.26912 16.8545 8.26655 15.8007 8.22811C15.7868 9.0188 15.7716 9.80565 15.7577 10.5938L18.4908 10.672L18.7745 11.0667L20.3069 11.1179ZM15.7323 11.1256L15.7058 11.6472C15.7058 11.6472 16.7924 11.6305 16.9646 11.4831C17.1344 11.3383 17.047 11.1961 17.047 11.1961L15.7323 11.1256Z" fill="url(#paint0_linear_209_630)"/>
</g>
<defs>
<linearGradient id="paint0_linear_209_630" x1="12" y1="2.66675" x2="12" y2="20.0001" gradientUnits="userSpaceOnUse">
<stop stop-color="#ED1C24"/>
<stop offset="1" stop-color="#BD2026"/>
</linearGradient>
</defs>
</svg>
