<svg width="24" height="24" viewBox="0 0 24 24" fill="none" xmlns="http://www.w3.org/2000/svg">
<g id="Frame 1221213684">
<g id="Group 637345763">
<g id="Vector">
<path fill-rule="evenodd" clip-rule="evenodd" d="M4.98 21.5065C7.73038 21.5065 9.96 19.2769 9.96 16.5265C9.96 13.7761 7.73038 11.5465 4.98 11.5465C2.22962 11.5465 0 13.7761 0 16.5265C0 19.2769 2.22962 21.5065 4.98 21.5065ZM4.98 19.2265C6.47117 19.2265 7.68 18.0177 7.68 16.5265C7.68 15.0353 6.47117 13.8265 4.98 13.8265C3.48883 13.8265 2.28 15.0353 2.28 16.5265C2.28 18.0177 3.48883 19.2265 4.98 19.2265Z" fill="url(#paint0_linear_209_523)"/>
<path fill-rule="evenodd" clip-rule="evenodd" d="M18.48 21.5065C20.3357 21.5065 21.84 20.0022 21.84 18.1465C21.84 16.2908 20.3357 14.7865 18.48 14.7865C16.6243 14.7865 15.12 16.2908 15.12 18.1465C15.12 20.0022 16.6243 21.5065 18.48 21.5065ZM18.48 20.0665C19.5404 20.0665 20.4 19.2069 20.4 18.1465C20.4 17.0861 19.5404 16.2265 18.48 16.2265C17.4196 16.2265 16.56 17.0861 16.56 18.1465C16.56 19.2069 17.4196 20.0665 18.48 20.0665Z" fill="url(#paint1_linear_209_523)"/>
<path fill-rule="evenodd" clip-rule="evenodd" d="M4.71473 9.87393C4.46639 9.97713 4.24157 10.122 4.04907 10.3009C3.6138 10.3437 2.51778 10.658 2.02418 10.8098C1.95291 10.8134 1.95144 10.9145 2.02271 10.9201C3.36834 10.8381 6.40915 10.9117 7.80734 11.8627C8.62786 12.4207 10.6667 13.9998 10.9942 16.6494C11.1643 16.8257 11.5257 17.226 11.627 17.4347H14.58C14.597 17.3429 14.62 17.2434 14.6496 17.138C14.7724 16.6701 14.9788 16.2359 15.2518 15.8525C15.8431 14.9837 16.8474 14.1865 18.42 14.1865C18.5831 14.1789 18.7864 14.1882 19.0149 14.2223C20.3812 14.4068 21.5264 15.2881 22.081 16.4967C22.4326 16.0244 22.5681 15.4322 22.4539 14.8595L22.2166 13.6677C22.0799 12.9835 21.6045 12.4074 20.9433 12.1246L18.9808 11.2856C18.0962 10.9074 17.1528 10.6727 16.1889 10.5914L15.7179 10.5518V12.6202C15.7179 12.9128 15.4703 13.151 15.1662 13.151C14.862 13.151 14.6144 12.9128 14.6144 12.6202V10.4479C14.4425 10.3963 14.3124 10.2535 14.2889 10.0761C13.9913 7.86356 13.5233 6.16776 12.5638 4.60556H13.3066C13.466 4.60556 13.5946 4.48114 13.5946 4.32846V3.78982C13.5946 3.64844 13.4594 3.54312 13.3154 3.5728L12.6732 3.7064C12.4014 3.76296 12.1237 3.79123 11.846 3.79123H5.88441C5.65077 3.79123 5.46121 3.97361 5.46121 4.19839C5.46121 4.42318 5.65077 4.60556 5.88441 4.60556H5.93217C5.48105 6.60178 5.28561 7.86851 5.23418 9.15645C5.22169 9.47242 5.0167 9.74881 4.71473 9.87393ZM7.62276 4.92648C7.86522 4.92648 8.06139 5.11522 8.06139 5.34849L8.06213 9.81314L6.89392 9.62086C6.5464 9.56431 6.29291 9.27449 6.29291 8.9359V5.38454C6.29291 5.13147 6.50599 4.92648 6.76902 4.92648H7.62276ZM13.1435 14.5846H12.3801L12.3808 14.586C12.0759 14.586 11.8151 14.3782 11.7541 14.0912C11.3743 12.2985 10.3589 10.8975 8.62786 9.93613C8.59554 9.91846 8.5757 9.88524 8.5757 9.84989V5.24811C8.5757 5.07139 8.72485 4.92789 8.90853 4.92789H11.7703C11.9922 4.92789 12.1971 5.03817 12.314 5.21913C13.6431 7.27261 13.9803 10.3574 13.7819 14.0021C13.7636 14.3287 13.4836 14.5846 13.1435 14.5846Z" fill="url(#paint2_linear_209_523)"/>
<path fill-rule="evenodd" clip-rule="evenodd" d="M16.4034 3.19392L15.7738 3.55231C15.5798 3.66258 15.4593 3.86616 15.4593 4.08247V5.19085C15.7077 5.20923 15.9053 5.41069 15.9053 5.65456V8.35979C15.9053 8.60366 15.7077 8.80513 15.4593 8.8235V12.6209C15.4593 12.7778 15.3271 12.9043 15.1647 12.9043C15.0023 12.9043 14.8701 12.7771 14.8701 12.6209V8.81785C14.643 8.77968 14.4696 8.58811 14.4696 8.35979V5.65456C14.4696 5.42553 14.6438 5.23468 14.8701 5.19651V4.08317C14.8701 3.66682 15.1015 3.27662 15.4733 3.06456L16.1029 2.70617C16.2433 2.62629 16.424 2.67083 16.507 2.80584C16.5901 2.94085 16.5438 3.11404 16.4034 3.19392ZM22.4152 17.7013C22.4952 17.8215 22.6352 17.9012 22.7948 17.9012H23.5486C23.8432 17.9012 24.0585 17.6348 23.9858 17.3605L23.7617 16.5115C23.711 16.3193 23.5317 16.1849 23.3253 16.1849H22.7963L22.7948 16.1856C22.5465 16.1856 22.3444 16.3793 22.3444 16.619V17.2777C22.3754 17.4163 22.3992 17.5576 22.4152 17.7013Z" fill="url(#paint3_linear_209_523)"/>
</g>
</g>
</g>
<defs>
<linearGradient id="paint0_linear_209_523" x1="12" y1="2.6665" x2="12" y2="21.5065" gradientUnits="userSpaceOnUse">
<stop stop-color="#ED1C24"/>
<stop offset="1" stop-color="#BD2026"/>
</linearGradient>
<linearGradient id="paint1_linear_209_523" x1="12" y1="2.6665" x2="12" y2="21.5065" gradientUnits="userSpaceOnUse">
<stop stop-color="#ED1C24"/>
<stop offset="1" stop-color="#BD2026"/>
</linearGradient>
<linearGradient id="paint2_linear_209_523" x1="12" y1="2.6665" x2="12" y2="21.5065" gradientUnits="userSpaceOnUse">
<stop stop-color="#ED1C24"/>
<stop offset="1" stop-color="#BD2026"/>
</linearGradient>
<linearGradient id="paint3_linear_209_523" x1="12" y1="2.6665" x2="12" y2="21.5065" gradientUnits="userSpaceOnUse">
<stop stop-color="#ED1C24"/>
<stop offset="1" stop-color="#BD2026"/>
</linearGradient>
</defs>
</svg>
