<svg width="24" height="24" viewBox="0 0 24 24" fill="none" xmlns="http://www.w3.org/2000/svg">
<g id="Frame 1221213682">
<g id="Vector">
<path d="M15.0722 6.871C15.0269 6.69171 15.1384 6.51106 15.3224 6.46691C15.5057 6.42277 15.6917 6.53211 15.737 6.71073C15.7677 6.83161 17.9559 15.5308 18.2103 16.6059C18.3964 17.3923 18.9532 17.5431 19.4479 17.6158L23.639 17.8949C23.855 17.9173 24 17.9587 24 18.0796C24 18.1829 23.8467 18.28 23.6578 18.28H19.4619C18.9894 18.28 17.8577 18.1095 17.5434 16.7838C17.2897 15.7135 15.1029 6.99189 15.0722 6.871ZM1.83698 15.0432H0V14.9209C0 14.4136 0.442518 14.0041 0.96309 14.0041H2.87325C3.03075 11.3316 3.55411 9.4959 3.97921 8.46904C4.37922 7.50329 4.99178 6.52192 5.45939 6.52192H9.35567C10.3947 6.52192 11.4798 7.46322 12.5809 9.30099C12.661 9.43478 12.7377 9.5774 12.8122 9.70916L11.3864 3.89567C11.2651 3.40261 11.5773 2.90751 12.084 2.78934L12.5 2.69222C13.0059 2.57405 13.514 2.87831 13.6352 3.37137L16.935 16.8252C16.4374 16.3627 15.7642 16.0782 15.0227 16.0782C13.4917 16.0782 12.2498 17.3169 12.2498 18.809C12.2498 19.4332 12.4673 20.0349 12.8317 20.4933H5.09283C5.26008 20.1116 5.35556 19.8427 5.35556 19.4841C5.35556 18.3608 4.42103 17.4283 3.26838 17.4283C2.11573 17.4283 1.18121 18.3533 1.18121 19.4766C1.18121 19.8352 1.27669 20.111 1.44394 20.4926H0.964484C0.443911 20.4926 0.00139604 20.0166 0.00139604 19.5099V17.0582H1.83838C1.95197 17.0582 2.04396 16.9685 2.04396 16.8578V16.7723C2.04396 16.6616 1.95197 16.5719 1.83838 16.5719H0.00139604V16.2935H1.83838C1.95197 16.2935 2.04396 16.2038 2.04396 16.0931V16.0076C2.04396 15.8969 1.95197 15.8072 1.83838 15.8072H0.00139604V15.5288H1.83838C1.95197 15.5288 2.04396 15.4391 2.04396 15.3284V15.2428C2.04396 15.1321 1.95197 15.0425 1.83838 15.0425L1.83698 15.0432ZM13.9001 11.9945C13.9084 12.0162 13.9126 12.0379 13.9147 12.0597L14.4067 14.055C14.4771 14.3416 14.7726 14.5182 15.0666 14.4503L15.3085 14.3939C15.6025 14.3253 15.7844 14.0374 15.714 13.7508L13.2485 3.79108C13.1781 3.50448 12.8826 3.3279 12.5885 3.39582L12.3467 3.45218C12.0526 3.52078 11.8707 3.80874 11.9411 4.09534L13.8973 11.987C13.8973 11.987 13.8994 11.9931 13.9001 11.9945ZM4.95205 14.0048C4.94927 13.9925 4.94578 13.9803 4.94369 13.9674L4.53045 11.4383C4.48445 11.1551 4.68446 10.8861 4.97506 10.8406C5.26566 10.7958 5.54162 10.9907 5.58831 11.2739L6.00157 13.8037C6.01341 13.8784 6.00853 13.9518 5.98902 14.0204C6.24687 14.0666 6.66291 14.22 7.16188 14.4876H8.7654C9.08109 14.4876 9.33895 14.7389 9.33895 15.0466C9.33895 15.3542 9.09225 15.594 8.78632 15.6048C9.15148 15.9152 9.51874 16.2717 9.86928 16.6772H12.6491L11.953 13.5511C11.9446 13.5137 11.9446 13.4791 11.9516 13.4411L11.1453 13.6115C11.0372 13.6346 10.9299 13.5681 10.9069 13.4628C10.8832 13.3575 10.9522 13.2543 11.0603 13.2312L13.5391 12.6804L13.4081 12.1486C12.8457 10.7014 11.0589 7.05709 9.35567 7.05709H5.48448C5.36879 7.13315 4.89422 7.55287 4.39107 8.83441C4.00848 9.80899 3.53739 11.4851 3.38825 14.0048H4.95205Z" fill="url(#paint0_linear_209_545)"/>
<path fill-rule="evenodd" clip-rule="evenodd" d="M15.0545 21.3334C16.4202 21.3334 17.5273 20.2234 17.5273 18.8542C17.5273 17.485 16.4202 16.3751 15.0545 16.3751C13.6889 16.3751 12.5818 17.485 12.5818 18.8542C12.5818 20.2234 13.6889 21.3334 15.0545 21.3334ZM15.0545 20.1667C15.7775 20.1667 16.3636 19.5791 16.3636 18.8542C16.3636 18.1294 15.7775 17.5417 15.0545 17.5417C14.3316 17.5417 13.7455 18.1294 13.7455 18.8542C13.7455 19.5791 14.3316 20.1667 15.0545 20.1667Z" fill="url(#paint1_linear_209_545)"/>
<path fill-rule="evenodd" clip-rule="evenodd" d="M3.27273 21.1876C4.23671 21.1876 5.01818 20.4041 5.01818 19.4376C5.01818 18.4711 4.23671 17.6876 3.27273 17.6876C2.30874 17.6876 1.52727 18.4711 1.52727 19.4376C1.52727 20.4041 2.30874 21.1876 3.27273 21.1876ZM3.27273 20.3855C3.79489 20.3855 4.21818 19.9611 4.21818 19.4376C4.21818 18.9141 3.79489 18.4897 3.27273 18.4897C2.75057 18.4897 2.32727 18.9141 2.32727 19.4376C2.32727 19.9611 2.75057 20.3855 3.27273 20.3855Z" fill="url(#paint2_linear_209_545)"/>
</g>
</g>
<defs>
<linearGradient id="paint0_linear_209_545" x1="12" y1="2.66675" x2="12" y2="21.3334" gradientUnits="userSpaceOnUse">
<stop stop-color="#ED1C24"/>
<stop offset="1" stop-color="#BD2026"/>
</linearGradient>
<linearGradient id="paint1_linear_209_545" x1="12" y1="2.66675" x2="12" y2="21.3334" gradientUnits="userSpaceOnUse">
<stop stop-color="#ED1C24"/>
<stop offset="1" stop-color="#BD2026"/>
</linearGradient>
<linearGradient id="paint2_linear_209_545" x1="12" y1="2.66675" x2="12" y2="21.3334" gradientUnits="userSpaceOnUse">
<stop stop-color="#ED1C24"/>
<stop offset="1" stop-color="#BD2026"/>
</linearGradient>
</defs>
</svg>
