<svg width="24" height="24" viewBox="0 0 24 24" fill="none" xmlns="http://www.w3.org/2000/svg">
<g id="Frame 1221213682">
<path id="Vector" fill-rule="evenodd" clip-rule="evenodd" d="M14.3043 16.5681H4.4021C3.59428 16.5681 2.86229 16.91 2.33136 17.4635C1.80164 18.0145 1.47056 18.7758 1.47056 19.6174C1.47056 20.4576 1.80164 21.219 2.33136 21.7712C2.86109 22.3222 3.59307 22.6666 4.4021 22.6666H14.3043C15.1121 22.6666 15.8441 22.3222 16.3774 21.7712C16.9071 21.2202 17.2382 20.4576 17.2382 19.6174C17.2382 18.7771 16.9071 18.0157 16.3774 17.4635C15.8441 16.9087 15.1121 16.5681 14.3043 16.5681ZM22.6667 10.8792L19.1091 11.3437C18.9574 11.0232 18.3169 9.85231 18.3169 9.85231L17.981 10.0777L19.9603 15.0617L22.4343 13.3736L22.6667 10.8792ZM21.9804 2.42021L22.4548 10.6162L21.2172 10.7239L19.9651 5.23777L21.9804 2.42021ZM13.8829 8.19558C14.8352 8.46106 15.6274 8.87305 16.2643 9.4303L21.5266 2.027L20.6224 1.33325L13.8829 8.19558ZM12.9463 21.0587H10.8057C10.9273 20.559 11.3607 20.1896 11.876 20.1896C12.3913 20.1896 12.8283 20.5603 12.9463 21.0587ZM10.4012 21.0587H8.26064C8.38223 20.559 8.81323 20.1896 9.33092 20.1896C9.8486 20.1896 10.2808 20.5603 10.4012 21.0587ZM7.83085 21.0587H5.69269C5.81188 20.559 6.24529 20.1896 6.76297 20.1896C7.28066 20.1896 7.71286 20.5603 7.83085 21.0587ZM5.69269 18.151H7.83085C7.71166 18.6506 7.28066 19.02 6.76297 19.02C6.24529 19.02 5.81188 18.6494 5.69269 18.151ZM8.24018 18.151H10.3807C10.2591 18.6506 9.82573 19.02 9.31045 19.02C8.79518 19.02 8.36057 18.6494 8.24018 18.151ZM10.8057 18.151H12.9463C12.8271 18.6506 12.3937 19.02 11.876 19.02C11.3583 19.02 10.9261 18.6494 10.8057 18.151ZM12.2299 9.78344V12.8402H11.3559V9.66572C11.6641 9.69453 11.9518 9.73335 12.2299 9.78344ZM13.0787 12.8402V9.98505C13.972 10.253 14.6944 10.66 15.2506 11.2035C15.7056 11.653 16.0536 12.199 16.3016 12.8402H13.0799H13.0787ZM4.39849 18.2662C5.09555 18.2662 5.66139 18.8547 5.66139 19.5823C5.66139 20.3099 5.09555 20.8984 4.39849 20.8984C3.70142 20.8984 3.13558 20.3073 3.13558 19.5823C3.13558 18.8572 3.70142 18.2662 4.39849 18.2662ZM14.1743 18.2662C14.8713 18.2662 15.4372 18.8547 15.4372 19.5823C15.4372 20.3099 14.8713 20.8984 14.1743 20.8984C13.4772 20.8984 12.9089 20.3073 12.9089 19.5823C12.9089 18.8572 13.4748 18.2662 14.1743 18.2662ZM10.1905 9.01956V8.38718L10.7961 8.41348C13.1293 8.51366 14.8665 9.16232 16.0476 10.3232C17.2442 11.4965 17.8498 13.162 17.9064 15.2808L17.9244 15.8982L17.3309 15.9032L10.7792 15.9558L10.1905 15.9608V15.3509H1.33333V12.3468H10.1905V9.01956ZM4.40331 17.7828H14.3055C14.7907 17.7828 15.2301 17.9882 15.5527 18.3213C15.8706 18.6544 16.068 19.1114 16.068 19.6161C16.068 20.1208 15.8706 20.5778 15.5527 20.9109C15.2301 21.2415 14.7907 21.4494 14.3055 21.4494H4.40331C3.91813 21.4494 3.47869 21.2415 3.16086 20.9109C2.83942 20.5778 2.64078 20.1208 2.64078 19.6161C2.64078 19.1114 2.84062 18.6544 3.16086 18.3213C3.47869 17.9882 3.91813 17.7828 4.40331 17.7828Z" fill="url(#paint0_linear_207_500)"/>
</g>
<defs>
<linearGradient id="paint0_linear_207_500" x1="12" y1="1.33325" x2="12" y2="22.6666" gradientUnits="userSpaceOnUse">
<stop stop-color="#ED1C24"/>
<stop offset="1" stop-color="#BD2026"/>
</linearGradient>
</defs>
</svg>
