<svg width="125" height="91" viewBox="0 0 125 91" fill="none" xmlns="http://www.w3.org/2000/svg">
<rect width="125" height="91" rx="5" fill="#14121A"/>
<g opacity="0.1">
<mask id="mask0_225_595" style="mask-type:alpha" maskUnits="userSpaceOnUse" x="0" y="0" width="125" height="91">
<rect width="125" height="91" rx="5" fill="#FF1D1D"/>
</mask>
<g mask="url(#mask0_225_595)">
<path d="M107.389 11.0744V-9.4812L127.944 -9.4812V11.0744H107.389Z" fill="#282828"/>
<path d="M106.015 38.7752H105.705L107.305 37.1753V37.4852L106.015 38.7752Z" fill="white"/>
<path d="M107.305 32.895V33.205L101.734 38.7752H101.424L107.305 32.895Z" fill="white"/>
<path d="M107.305 35.751V36.0525L104.582 38.7748H104.281L107.305 35.751Z" fill="white"/>
<path d="M107.305 31.689V31.7811L100.31 38.7753H100.218V38.5659L107.095 31.689H107.305Z" fill="white"/>
<path d="M107.305 34.3186V34.6285L103.158 38.7748H102.857L107.305 34.3186Z" fill="white"/>
<path d="M102.817 31.6887H103.127L100.22 34.5953V34.2854L102.817 31.6887Z" fill="white"/>
<path d="M101.393 31.6887H101.703L100.22 33.1713V32.8614L101.393 31.6887Z" fill="white"/>
<path d="M105.671 31.689H105.973L100.218 37.4435V37.142L105.671 31.689Z" fill="white"/>
<path d="M104.247 31.6887H104.549L100.218 36.0193V35.7094L104.247 31.6887Z" fill="white"/>
<path d="M130.169 1.16859C126.974 -1.82696 121.806 -1.52507 118.649 1.84196C115.492 5.2087 115.523 10.3855 118.718 13.381C121.913 16.3769 127.081 16.0747 130.237 12.708C133.395 9.34092 133.364 4.16443 130.169 1.16859ZM119.481 12.5669C116.713 9.97089 116.686 5.48419 119.422 2.56635C122.158 -0.351789 126.637 -0.61334 129.406 1.9827C132.175 4.57901 132.201 9.06541 129.465 11.9835C126.729 14.9014 122.25 15.1632 119.481 12.5669Z" fill="#F4F4F4"/>
<path d="M125.606 8.36169C126.238 7.68805 126.232 6.65293 125.592 6.05366C124.954 5.45465 123.92 5.51485 123.288 6.18849C122.657 6.86184 122.663 7.89726 123.302 8.49626C123.941 9.09554 124.975 9.03504 125.606 8.36169ZM124.065 7.68216C123.853 7.48268 123.851 7.13706 124.061 6.9129C124.271 6.68845 124.616 6.66828 124.829 6.86776C125.042 7.06725 125.044 7.41286 124.833 7.63731C124.623 7.86147 124.278 7.88165 124.065 7.68216Z" fill="#F4F4F4"/>
<path d="M123.197 4.92353C123.995 4.46847 124.309 3.46534 123.896 2.68736C123.697 2.31064 123.358 2.04197 122.943 1.93131C122.529 1.82034 122.087 1.88078 121.7 2.10182C120.902 2.55775 120.589 3.56117 121.001 4.33887C121.082 4.49068 121.184 4.62277 121.302 4.7339C121.792 5.19155 122.555 5.28959 123.197 4.92353ZM122.199 3.0422C122.328 2.96881 122.475 2.94905 122.613 2.98546C122.697 3.00747 122.77 3.04855 122.83 3.10508C122.87 3.14295 122.904 3.18757 122.931 3.23835C123.069 3.49758 122.964 3.83186 122.698 3.98374C122.432 4.13619 122.103 4.04798 121.966 3.78845C121.829 3.52892 121.934 3.19407 122.199 3.0422Z" fill="#F4F4F4"/>
<path d="M121.767 7.85746C121.621 6.97753 120.781 6.4176 119.895 6.60987C119.465 6.70315 119.089 6.9568 118.836 7.3251C118.582 7.69284 118.481 8.12975 118.552 8.55658C118.609 8.9058 118.777 9.20521 119.013 9.42665C119.371 9.7625 119.889 9.92009 120.423 9.80443C121.31 9.61101 121.912 8.73797 121.767 7.85746ZM120.246 8.73932C120.104 8.77002 119.96 8.7437 119.842 8.66547C119.725 8.58778 119.646 8.46545 119.623 8.32344C119.575 8.02984 119.776 7.73843 120.071 7.67444C120.249 7.63552 120.422 7.68815 120.541 7.8001C120.62 7.87419 120.676 7.9737 120.695 8.08945C120.744 8.38388 120.543 8.67473 120.246 8.73932Z" fill="#F4F4F4"/>
<path d="M124.036 9.98633C123.148 9.89741 122.315 10.5548 122.18 11.4514C122.098 11.9922 122.289 12.4989 122.647 12.8353C122.883 13.0567 123.193 13.2043 123.546 13.24C123.976 13.283 124.406 13.1537 124.756 12.8776C125.107 12.6012 125.336 12.209 125.402 11.7744C125.537 10.8766 124.924 10.0747 124.036 9.98633ZM123.709 12.1555C123.566 12.1411 123.439 12.0711 123.353 11.9586C123.267 11.8456 123.232 11.7039 123.254 11.5599C123.299 11.2611 123.577 11.0418 123.873 11.0712C123.99 11.0833 124.093 11.1328 124.172 11.2066C124.291 11.3188 124.355 11.4876 124.327 11.6676C124.283 11.9656 124.005 12.1846 123.709 12.1555Z" fill="#F4F4F4"/>
<path fill-rule="evenodd" clip-rule="evenodd" d="M124.233 23.0577L124.854 21.9288C126.309 21.1021 127.348 19.6939 127.7 18.0515C129.482 17.4289 131.16 16.3702 132.556 14.8813L131.784 14.1569C127.785 18.422 121.239 18.8046 117.192 15.0097C113.145 11.2148 113.106 4.65844 117.105 0.393314C121.105 -3.8721 127.65 -4.25463 131.697 -0.459758C131.775 -0.386837 131.862 -0.309396 131.951 -0.230041L131.959 -0.223547C131.992 -0.194314 132.025 -0.164729 132.058 -0.135188C132.064 -0.129472 132.07 -0.123758 132.077 -0.118048C132.081 -0.11375 132.086 -0.109454 132.091 -0.105162L131.316 0.721526L132.763 0.726323L137.43 -4.25136L137.814 -5.43469L137.428 -5.79687L135.887 -4.15403C135.845 -4.1969 135.803 -4.24037 135.761 -4.28381C135.68 -4.36775 135.599 -4.45156 135.515 -4.53058C129.338 -10.3222 119.347 -9.73833 113.243 -3.22842C107.139 3.2812 107.198 13.2889 113.375 19.0805C116.386 21.9035 120.302 23.2118 124.233 23.0577ZM132.854 -0.918976C132.803 -0.965312 132.753 -1.01165 132.702 -1.05683C132.616 -1.13185 132.534 -1.20499 132.461 -1.27386C131.534 -2.14287 130.484 -2.80243 129.37 -3.27772C130.498 -4.12629 131.928 -4.43226 133.272 -4.06282L134.834 -3.63343C134.9 -3.57016 134.964 -3.50442 135.028 -3.43864C135.06 -3.40565 135.092 -3.37264 135.124 -3.33993L132.854 -0.918976ZM132.739 -5.27228C131.113 -5.44276 129.468 -4.8705 128.225 -3.68961C124.194 -4.89127 119.529 -3.73941 116.333 -0.330828C116.307 -0.303414 116.284 -0.274826 116.26 -0.246215C116.239 -0.220154 116.218 -0.194074 116.194 -0.168846C115.795 -1.46635 116.019 -2.91016 116.85 -4.09796L117.819 -5.48035C122.541 -8.12036 128.296 -8.09657 132.739 -5.27228ZM114.016 -2.50403C114.49 -3.00999 114.992 -3.47396 115.512 -3.90279C114.766 -2.3945 114.72 -0.676822 115.392 0.817077C112.642 4.56153 112.316 9.44387 114.411 13.2297C113.039 13.2721 111.751 12.6852 110.925 11.5845L109.965 10.3065C109.276 5.89442 110.622 1.11466 114.016 -2.50403ZM110.632 12.925C110.635 12.927 110.637 12.9294 110.639 12.9318C110.641 12.9345 110.644 12.9372 110.646 12.9396C111.808 14.0289 113.416 14.5093 115.065 14.2559C115.463 14.8116 115.913 15.34 116.429 15.8238C119.175 18.3993 122.961 19.2259 126.5 18.3958C126.049 19.7223 125.029 20.805 123.683 21.3108L122.131 21.8955C119.208 21.5845 116.399 20.3861 114.138 18.2664C112.516 16.7449 111.347 14.9105 110.632 12.925Z" fill="#F4F4F4"/>
<path d="M113.204 2.41003L112.226 1.9874C112.063 2.33492 111.911 2.69313 111.777 3.0511L112.79 3.38828C112.914 3.05905 113.054 2.7296 113.204 2.41003Z" fill="#F4F4F4"/>
<path d="M110.959 6.38551C110.915 6.76298 110.885 7.14452 110.872 7.5204L111.958 7.50195C111.97 7.15645 111.997 6.80508 112.038 6.45835L110.959 6.38551Z" fill="#F4F4F4"/>
<path d="M112.455 4.39475L111.413 4.1436C111.307 4.51 111.216 4.88472 111.141 5.2578L112.205 5.41969C112.274 5.07634 112.358 4.73136 112.455 4.39475Z" fill="#F4F4F4"/>
<path d="M114.261 0.560544L113.374 -0.0225633C113.158 0.294585 112.951 0.625373 112.759 0.960192L113.694 1.4651C113.871 1.15686 114.062 0.85216 114.261 0.560544Z" fill="#F4F4F4"/>
<path d="M112.059 9.57662C112.014 9.23609 111.983 8.88858 111.966 8.54403L110.881 8.65385C110.899 9.02902 110.933 9.40681 110.982 9.77701L112.059 9.57662Z" fill="#F4F4F4"/>
<path d="M117.409 17.9853L116.797 18.9163C117.108 19.1124 117.43 19.297 117.757 19.4647L118.292 18.4896C117.992 18.3352 117.695 18.1654 117.409 17.9853Z" fill="#F4F4F4"/>
<path d="M115.793 16.7573L115.041 17.5821C115.312 17.8288 115.598 18.0662 115.889 18.287L116.573 17.4068C116.305 17.2023 116.042 16.9837 115.793 16.7573Z" fill="#F4F4F4"/>
<path d="M119.217 18.9179L118.762 19.9298C119.103 20.0701 119.455 20.197 119.808 20.3072L120.179 19.2641C119.854 19.1633 119.531 19.0469 119.217 18.9179Z" fill="#F4F4F4"/>
<path d="M121.171 19.5282L120.886 20.5928C121.249 20.6728 121.62 20.7378 121.989 20.7867L122.186 19.7061C121.846 19.662 121.505 19.6017 121.171 19.5282Z" fill="#F4F4F4"/>
<path d="M113.546 15.9627C113.771 16.2543 114.011 16.5377 114.259 16.8059L115.072 16.0427C114.845 15.7966 114.625 15.536 114.418 15.2677L113.546 15.9627Z" fill="#F4F4F4"/>
<path d="M127.949 11.0743V31.6299H107.394V11.0743H127.949Z" fill="#E7E7E7"/>
<path d="M121.205 17.8172V24.8784H114.144V17.8172H121.205Z" fill="#F4F4F4"/>
<path d="M43.2266 30.4404C43.2266 30.5298 43.2 30.6173 43.1503 30.6916C43.1006 30.766 43.03 30.824 42.9473 30.8583C42.8647 30.8925 42.7738 30.9014 42.686 30.884C42.5983 30.8665 42.5177 30.8235 42.4544 30.7602C42.3912 30.6969 42.348 30.6163 42.3306 30.5286C42.3131 30.4409 42.3221 30.3499 42.3564 30.2673C42.3906 30.1846 42.4485 30.114 42.5229 30.0643C42.5973 30.0146 42.6848 29.988 42.7743 29.988C42.8942 29.988 43.0093 30.0357 43.0941 30.1205C43.1789 30.2053 43.2266 30.3204 43.2266 30.4404Z" fill="#F0F0F0"/>
<path d="M47.7323 30.4404C47.7323 30.5302 47.7056 30.618 47.6555 30.6926C47.6054 30.7671 47.5342 30.8251 47.4511 30.8591C47.368 30.893 47.2766 30.9015 47.1886 30.8834C47.1007 30.8652 47.0201 30.8213 46.9572 30.7572C46.8943 30.6931 46.8519 30.6117 46.8354 30.5234C46.8189 30.4351 46.8291 30.3439 46.8646 30.2615C46.9001 30.179 46.9594 30.1089 47.0348 30.0602C47.1103 30.0116 47.1986 29.9865 47.2884 29.9881C47.3474 29.9881 47.4058 29.9999 47.4603 30.0227C47.5147 30.0455 47.564 30.079 47.6053 30.1211C47.6466 30.1632 47.6792 30.2131 47.701 30.268C47.7228 30.3228 47.7335 30.3814 47.7323 30.4404Z" fill="#F0F0F0"/>
<path d="M52.248 30.4404C52.248 30.5298 52.2215 30.6173 52.1718 30.6916C52.1221 30.766 52.0515 30.824 51.9688 30.8583C51.8861 30.8925 51.7952 30.9014 51.7074 30.884C51.6197 30.8665 51.5391 30.8235 51.4759 30.7602C51.4126 30.6969 51.3695 30.6163 51.3521 30.5286C51.3346 30.4409 51.3436 30.3499 51.3778 30.2673C51.412 30.1846 51.47 30.114 51.5444 30.0643C51.6188 30.0146 51.7062 29.988 51.7957 29.988C51.9157 29.988 52.0307 30.0357 52.1155 30.1205C52.2004 30.2053 52.248 30.3204 52.248 30.4404Z" fill="#F0F0F0"/>
<path d="M56.7559 30.4404C56.7559 30.5298 56.7293 30.6173 56.6796 30.6916C56.6299 30.766 56.5593 30.824 56.4766 30.8583C56.394 30.8925 56.303 30.9014 56.2153 30.884C56.1275 30.8665 56.0469 30.8235 55.9837 30.7602C55.9204 30.6969 55.8773 30.6163 55.8599 30.5286C55.8424 30.4409 55.8514 30.3499 55.8856 30.2673C55.9198 30.1846 55.9778 30.114 56.0522 30.0643C56.1266 30.0146 56.214 29.988 56.3035 29.988C56.4235 29.988 56.5385 30.0357 56.6233 30.1205C56.7082 30.2053 56.7559 30.3204 56.7559 30.4404Z" fill="#F0F0F0"/>
<path d="M43.2266 34.4196C43.2266 34.5091 43.2 34.5965 43.1503 34.6709C43.1006 34.7453 43.03 34.8033 42.9473 34.8375C42.8647 34.8717 42.7738 34.8807 42.686 34.8632C42.5983 34.8458 42.5177 34.8027 42.4544 34.7394C42.3912 34.6762 42.348 34.5956 42.3306 34.5078C42.3131 34.4201 42.3221 34.3292 42.3564 34.2465C42.3906 34.1639 42.4485 34.0932 42.5229 34.0435C42.5973 33.9938 42.6848 33.9673 42.7743 33.9673C42.8942 33.9673 43.0093 34.0149 43.0941 34.0998C43.1789 34.1846 43.2266 34.2996 43.2266 34.4196Z" fill="#F0F0F0"/>
<path d="M47.7323 34.4197C47.7323 34.5095 47.7056 34.5973 47.6555 34.6718C47.6054 34.7464 47.5342 34.8043 47.4511 34.8383C47.368 34.8723 47.2766 34.8807 47.1886 34.8626C47.1007 34.8445 47.0201 34.8005 46.9572 34.7364C46.8943 34.6723 46.8519 34.591 46.8354 34.5027C46.8189 34.4144 46.8291 34.3232 46.8646 34.2407C46.9001 34.1582 46.9594 34.0882 47.0348 34.0395C47.1103 33.9908 47.1986 33.9657 47.2884 33.9674C47.3474 33.9674 47.4058 33.9791 47.4603 34.0019C47.5147 34.0248 47.564 34.0582 47.6053 34.1003C47.6466 34.1425 47.6792 34.1924 47.701 34.2472C47.7228 34.302 47.7335 34.3607 47.7323 34.4197Z" fill="#F0F0F0"/>
<path d="M52.248 34.4191C52.248 34.5086 52.2215 34.596 52.1718 34.6704C52.1221 34.7448 52.0515 34.8028 51.9688 34.837C51.8861 34.8712 51.7952 34.8802 51.7074 34.8627C51.6197 34.8453 51.5391 34.8022 51.4759 34.739C51.4126 34.6757 51.3695 34.5951 51.3521 34.5074C51.3346 34.4196 51.3436 34.3287 51.3778 34.246C51.412 34.1634 51.47 34.0927 51.5444 34.043C51.6188 33.9933 51.7062 33.9668 51.7957 33.9668C51.9157 33.9668 52.0307 34.0144 52.1155 34.0993C52.2004 34.1841 52.248 34.2992 52.248 34.4191Z" fill="#F0F0F0"/>
<path d="M56.7559 34.4191C56.7559 34.5086 56.7293 34.596 56.6796 34.6704C56.6299 34.7448 56.5593 34.8028 56.4766 34.837C56.394 34.8712 56.303 34.8802 56.2153 34.8627C56.1275 34.8453 56.0469 34.8022 55.9837 34.739C55.9204 34.6757 55.8773 34.5951 55.8599 34.5074C55.8424 34.4196 55.8514 34.3287 55.8856 34.246C55.9198 34.1634 55.9778 34.0927 56.0522 34.043C56.1266 33.9933 56.214 33.9668 56.3035 33.9668C56.4235 33.9668 56.5385 34.0144 56.6233 34.0993C56.7082 34.1841 56.7559 34.2992 56.7559 34.4191Z" fill="#F0F0F0"/>
<path d="M43.2266 38.3898C43.2266 38.4793 43.2 38.5667 43.1503 38.6411C43.1006 38.7155 43.03 38.7735 42.9473 38.8077C42.8647 38.8419 42.7738 38.8509 42.686 38.8335C42.5983 38.816 42.5177 38.7729 42.4544 38.7097C42.3912 38.6464 42.348 38.5658 42.3306 38.4781C42.3131 38.3903 42.3221 38.2994 42.3564 38.2167C42.3906 38.1341 42.4485 38.0634 42.5229 38.0137C42.5973 37.964 42.6848 37.9375 42.7743 37.9375C42.8942 37.9375 43.0093 37.9852 43.0941 38.07C43.1789 38.1548 43.2266 38.2699 43.2266 38.3898Z" fill="#F0F0F0"/>
<path d="M47.7324 38.3897C47.7324 38.4795 47.7057 38.5672 47.6556 38.6418C47.6055 38.7164 47.5343 38.7743 47.4512 38.8083C47.368 38.8423 47.2767 38.8507 47.1887 38.8326C47.1007 38.8144 47.0202 38.7705 46.9573 38.7064C46.8943 38.6423 46.852 38.5609 46.8355 38.4727C46.819 38.3844 46.8292 38.2932 46.8647 38.2107C46.9002 38.1282 46.9594 38.0581 47.0349 38.0095C47.1104 37.9608 47.1987 37.9357 47.2885 37.9373C47.407 37.9395 47.5199 37.9881 47.6029 38.0727C47.6859 38.1573 47.7324 38.2711 47.7324 38.3897Z" fill="#F0F0F0"/>
<path d="M43.2266 42.36C43.2266 42.4495 43.2 42.537 43.1503 42.6113C43.1006 42.6857 43.03 42.7437 42.9473 42.7779C42.8647 42.8122 42.7738 42.8211 42.686 42.8037C42.5983 42.7862 42.5177 42.7431 42.4544 42.6799C42.3912 42.6166 42.348 42.536 42.3306 42.4483C42.3131 42.3605 42.3221 42.2696 42.3564 42.1869C42.3906 42.1043 42.4485 42.0336 42.5229 41.9839C42.5973 41.9342 42.6848 41.9077 42.7743 41.9077C42.8942 41.9077 43.0093 41.9554 43.0941 42.0402C43.1789 42.125 43.2266 42.2401 43.2266 42.36Z" fill="#F0F0F0"/>
<path d="M47.7324 42.3601C47.7324 42.4499 47.7057 42.5377 47.6556 42.6123C47.6055 42.6868 47.5343 42.7448 47.4512 42.7787C47.368 42.8127 47.2767 42.8212 47.1887 42.803C47.1007 42.7849 47.0202 42.741 46.9573 42.6769C46.8943 42.6128 46.852 42.5314 46.8355 42.4431C46.819 42.3548 46.8292 42.2636 46.8647 42.1811C46.9002 42.0986 46.9594 42.0286 47.0349 41.9799C47.1104 41.9312 47.1987 41.9061 47.2885 41.9078C47.407 41.91 47.5199 41.9586 47.6029 42.0432C47.6859 42.1278 47.7324 42.2416 47.7324 42.3601Z" fill="#F0F0F0"/>
<path d="M107.096 53.3331V73.8887H86.5401V53.3331H107.096Z" fill="black"/>
<path d="M58.668 38.0796V45.6602H51.0874V38.0796H58.668Z" fill="#282828"/>
<path d="M114.678 45.7607V53.3413H107.097V45.7607H114.678Z" fill="#ECECEC"/>
<path d="M107.096 73.8888V94.4443H86.5401V73.8888H107.096Z" fill="#F4F4F4"/>
<path d="M65.9863 73.8971V94.4526H45.4308V73.8971H65.9863Z" fill="black"/>
<path d="M59.2422 80.6399V87.7012H52.1809V80.6399H59.2422Z" fill="#F4F4F4"/>
<path d="M65.9922 73.8885V53.333H86.5478V73.8885H65.9922Z" fill="#E0E0E0"/>
<path d="M66.0352 53.3661V32.8105H86.5907V53.3661H66.0352Z" fill="#1D1D1D"/>
<path d="M107.096 73.897L86.5485 94.4525V73.897H107.096Z" fill="#1D1D1D"/>
<path fill-rule="evenodd" clip-rule="evenodd" d="M65.9952 73.8887V94.4442H86.5508V73.8887H65.9952ZM65.9955 84.9286V94.4441C71.4319 94.4241 76.6388 92.2506 80.4758 88.3994C84.3129 84.5482 86.4673 79.3333 86.4673 73.8969H76.9434C76.9413 76.8076 75.7898 79.5996 73.7395 81.6656C71.6892 83.7316 68.906 84.9043 65.9955 84.9286Z" fill="#F0F0F0"/>
<path d="M45.4375 73.8968V53.3413H65.9931V73.8968H45.4375Z" fill="#282828"/>
<path d="M65.9922 62.8654H65.9084C64.459 62.8654 63.0238 63.151 61.6848 63.7059C60.3459 64.2608 59.1294 65.0742 58.1049 66.0994C57.0804 67.1247 56.268 68.3418 55.7141 69.6812C55.1602 71.0206 54.8757 72.456 54.8768 73.9054H45.4366V72.1296C45.8791 67.0051 48.2275 62.2328 52.0178 58.7557C55.8082 55.2787 60.7648 53.3497 65.9084 53.3499H65.9922V62.8654Z" fill="#F4F4F4"/>
<path d="M113.591 80.3804H121.172L113.591 87.961V80.3804Z" fill="#F4F4F4"/>
<path d="M127.59 73.8849H107.034L127.59 53.3293V73.8849Z" fill="#F0F0F0"/>
<path fill-rule="evenodd" clip-rule="evenodd" d="M86.8438 11.0744H107.399V-9.4812L105.144 -7.2257V8.7579H89.1602L86.8438 11.0744ZM91.3032 6.61492H94.737V3.91636L94.1932 3.7249L91.3032 6.61492ZM95.8731 2.045L96.8028 2.36866V6.61492H103.039V4.591L96.8028 2.36866V1.11533L95.8731 2.045ZM101.391 -3.47301L103.039 -4.06027V-5.12096L101.391 -3.47301ZM98.9075 0.860639L103.039 2.32897V-1.79824L98.9075 -0.329903V0.860639Z" fill="white"/>
<path d="M65.8898 1.76767H86.4453L65.8898 22.3232V1.76767Z" fill="#F4F4F4"/>
<path d="M52.3203 80.6077V87.7089H59.2823V80.6077H52.3203ZM53.1844 81.5036H54.929V82.6484L53.1844 83.2457V81.5036ZM54.929 86.813H53.1844V85.0708L54.929 85.6847V86.813ZM58.4019 85.0211L56.6736 84.4072V83.9094L58.4019 83.2955V85.0211ZM58.4019 82.3498L55.7932 83.2789V85.0376L58.4019 85.9668V86.813H55.7932V85.0376L53.266 84.1583L55.7932 83.2789V81.5036H58.4019V82.3498Z" fill="#B0B0B0"/>
<path d="M45.5547 73.9623H24.9991L45.5547 94.5178L45.5547 73.9623Z" fill="#F0F0F0"/>
<mask id="mask1_225_595" style="mask-type:alpha" maskUnits="userSpaceOnUse" x="24" y="73" width="22" height="22">
<path d="M45.5547 73.9623H24.9991L45.5547 94.5178L45.5547 73.9623Z" fill="#D61C24"/>
</mask>
<g mask="url(#mask1_225_595)">
<path d="M29.1484 76.5066L29.1484 90.6418H42.9417L42.9417 76.5066H29.1484ZM30.8605 78.29H34.3169V80.5688L30.8605 81.7578V78.29ZM34.3169 88.8584H30.8605V85.3906L34.3169 86.6126V88.8584ZM41.1973 85.2916L37.7732 84.0696V83.0788L41.1973 81.8568V85.2916ZM41.1973 79.9743L36.0289 81.8238V85.3246L41.1973 87.1741V88.8584H36.0289V85.3246L31.022 83.5742L36.0289 81.8238V78.29H41.1973V79.9743Z" fill="#B0B0B0"/>
</g>
<path d="M109.244 47.9714V51.1633H112.322V47.9714H109.244ZM109.626 48.3741H110.397V48.8887L109.626 49.1572V48.3741ZM110.397 50.7606H109.626V49.9775L110.397 50.2534V50.7606ZM111.933 49.9551L111.169 49.6792V49.4555L111.933 49.1796V49.9551ZM111.933 48.7545L110.779 49.1721V49.9626L111.933 50.3802V50.7606H110.779V49.9626L109.662 49.5673L110.779 49.1721V48.3741H111.933V48.7545Z" fill="#B0B0B0"/>
<path d="M101.883 57.9028L102.091 57.499L102.474 57.7179L102.266 58.1219L101.883 57.9028Z" fill="#B0B0B0"/>
<path d="M98.7415 61.1323C98.7108 61.255 98.7804 61.3807 98.8968 61.413L101.57 62.1575C101.589 62.1625 101.607 62.165 101.626 62.165C101.747 62.1652 101.844 62.0624 101.844 61.9355C101.844 61.8311 101.777 61.7399 101.682 61.7132L99.0078 60.9688C98.8915 60.9365 98.7722 61.0097 98.7415 61.1323Z" fill="#B0B0B0"/>
<path d="M99.1553 60.3266C99.1255 60.4495 99.196 60.5745 99.3125 60.6059L102.009 61.3311C102.027 61.3359 102.045 61.3382 102.063 61.3381C102.183 61.3376 102.281 61.2345 102.28 61.1076C102.28 61.0033 102.213 60.9123 102.117 60.8861L99.4202 60.1607C99.3036 60.1294 99.1849 60.2037 99.1553 60.3266Z" fill="#B0B0B0"/>
<path d="M98.0098 65.7115H98.4457V65.2522H98.0098V65.7115Z" fill="#B0B0B0"/>
<path d="M101.193 59.3389L101.729 59.6453L101.92 59.7543L101.864 59.8628L101.415 59.7342L100.567 59.4921L100.77 59.0967L101.193 59.3389ZM102.193 56.6587H102.173C102.123 56.659 102.072 56.6631 102.021 56.671C101.425 56.7635 101.014 57.3472 101.102 57.9747C101.117 58.0824 101.146 58.1872 101.189 58.2862L100.979 58.6929L100.788 58.5834C100.682 58.5228 100.55 58.5639 100.492 58.6753L100.135 59.3683L99.8217 59.28C99.7055 59.247 99.5858 59.3193 99.5545 59.4418C99.5231 59.5645 99.5918 59.6905 99.708 59.7236L102.443 60.5046C102.461 60.51 102.481 60.5126 102.5 60.5126C102.62 60.5129 102.718 60.4104 102.718 60.2836C102.718 60.1793 102.652 60.0879 102.557 60.0611L102.297 59.9871L102.407 59.7723C102.465 59.6609 102.426 59.5216 102.32 59.4609L102.129 59.3513L102.339 58.9433C102.934 58.8508 103.346 58.2671 103.258 57.6396C103.179 57.0731 102.72 56.6646 102.193 56.6587ZM101.622 58.1674C101.433 57.8432 101.529 57.4188 101.837 57.2194C102.144 57.02 102.547 57.1211 102.736 57.4452C102.925 57.7694 102.829 58.1938 102.522 58.3932C102.424 58.457 102.311 58.4921 102.196 58.4952C102.118 58.4977 102.048 58.5434 102.011 58.6154L101.745 59.131L101.362 58.9126L101.628 58.3965C101.665 58.3245 101.663 58.2373 101.622 58.1674Z" fill="#B0B0B0"/>
<path d="M102.833 66.998H101.961V64.2416H102.833V66.998ZM101.525 66.0792H101.089V65.1604H101.525V66.0792ZM100.653 66.0792H99.1603C99.1696 66.0631 99.1785 66.0468 99.1871 66.0301C99.2174 65.9698 99.2425 65.9068 99.262 65.8418C99.2653 65.8304 99.2692 65.8187 99.2723 65.8084C99.2893 65.7467 99.3013 65.6835 99.3082 65.6197C99.3096 65.6071 99.3104 65.5945 99.3115 65.5818C99.3169 65.5164 99.3169 65.4508 99.3115 65.3852C99.3115 65.3796 99.3097 65.3743 99.3093 65.3685C99.3027 65.3053 99.2913 65.2428 99.2751 65.1815C99.2734 65.1749 99.2731 65.1677 99.2714 65.161H100.653V66.0792ZM98.7843 65.1253C98.9723 65.4475 98.8769 65.8694 98.5711 66.0675C98.3833 66.1892 98.1496 66.2023 97.9506 66.1022C97.9447 66.0992 97.924 66.0909 97.9179 66.0886C97.6007 65.9071 97.4829 65.4888 97.6551 65.1545C97.671 65.1248 97.6891 65.0966 97.7093 65.0699C97.7839 64.9651 97.8857 64.8852 98.0024 64.8402C98.0695 64.8145 98.14 64.8003 98.2113 64.798C98.2889 64.7955 98.3593 64.7499 98.3964 64.678L98.5579 64.3641L98.9409 64.5831L98.7788 64.8963C98.7418 64.9682 98.7438 65.0554 98.7843 65.1253ZM98.3983 63.2273L99.9309 64.1038L99.723 64.5075L98.8189 63.9905L98.5738 63.8511L98.1904 63.6311L98.3983 63.2273ZM99.474 62.5828L99.8917 62.7342L99.5634 63.371L99.1802 63.1519L99.474 62.5828ZM95.8582 66.0792V65.1604H97.1832C97.166 65.2239 97.154 65.289 97.1477 65.3547C97.1477 65.3629 97.1456 65.3712 97.1446 65.3796C97.1395 65.4447 97.1395 65.5101 97.1446 65.5753C97.1446 65.5854 97.1459 65.5952 97.147 65.6054C97.1537 65.6689 97.1652 65.7318 97.1819 65.7932C97.1846 65.8034 97.1874 65.8134 97.1903 65.8235C97.2083 65.8847 97.2309 65.944 97.2582 66.0011C97.2626 66.0101 97.2674 66.0188 97.2719 66.028C97.2807 66.0449 97.2885 66.0627 97.298 66.0792H95.8582ZM95.4223 64.9307V66.998H94.9865V64.2416H95.4223V64.9307ZM94.5506 64.0119V69.295C94.5493 69.586 94.3749 69.8448 94.1147 69.9419V61.2978C94.3749 61.3948 94.5493 61.6536 94.5506 61.9446V64.0119ZM93.6787 69.984H93.2428V61.2555H93.6787V69.984ZM92.8069 69.984H92.3711V61.2555H92.8069V69.984ZM91.9352 69.984H91.4993V61.2555H91.9352V69.984ZM91.0633 69.9419C90.8029 69.8448 90.6287 69.586 90.6274 69.295V61.9446C90.6287 61.6536 90.8029 61.3948 91.0633 61.2978V69.9419ZM103.051 63.7823H101.743C101.623 63.7823 101.525 63.8851 101.525 64.0119V64.7011H100.119L100.418 64.1208C100.476 64.0094 100.437 63.8699 100.331 63.8094L99.9477 63.5902L100.372 62.7658L101.129 62.9837C101.245 63.0171 101.365 62.945 101.397 62.8227C101.429 62.7002 101.36 62.5739 101.244 62.5405L98.5922 61.7772C98.4757 61.7458 98.3569 61.8203 98.3273 61.9431C98.2984 62.063 98.3647 62.1855 98.4774 62.2203L99.0759 62.3927L98.7978 62.9322L98.4147 62.7132C98.309 62.6528 98.1769 62.6938 98.1193 62.8051L97.7035 63.6127C97.6459 63.7241 97.6849 63.8635 97.7906 63.9242L98.1737 64.1431L98.068 64.3499C97.9945 64.3613 97.9224 64.3804 97.8528 64.4073C97.694 64.4691 97.5515 64.5699 97.4369 64.7011H95.8582V64.0119C95.8582 63.8851 95.7607 63.7823 95.6403 63.7823H94.9865V61.9446C94.9857 61.3107 94.4983 60.7969 93.8967 60.7961H91.2813C90.6797 60.7969 90.1923 61.3107 90.1915 61.9446V69.295C90.1923 69.9289 90.6797 70.4427 91.2813 70.4435H93.8967C94.4983 70.4427 94.9857 69.9289 94.9865 69.295V67.4574H95.6403C95.7607 67.4574 95.8582 67.3545 95.8582 67.2277V66.5385H97.8141C98.0804 66.6587 98.3817 66.6587 98.6481 66.5385H101.525V67.2277C101.525 67.3545 101.623 67.4574 101.743 67.4574H103.051C103.171 67.4574 103.269 67.3545 103.269 67.2277V64.0119C103.269 63.8851 103.171 63.7823 103.051 63.7823Z" fill="#B0B0B0"/>
<mask id="mask2_225_595" style="mask-type:alpha" maskUnits="userSpaceOnUse" x="107" y="53" width="21" height="21">
<path d="M127.599 73.8847H107.044L127.599 53.3291V73.8847Z" fill="#D61C24"/>
</mask>
<g mask="url(#mask2_225_595)">
<path d="M109.851 63.9996C109.851 62.4745 109.847 61.0032 109.851 59.532C109.855 58.5504 110.122 58.2789 111.09 58.2738C112.27 58.2676 113.456 58.2866 114.638 58.2676C115.361 58.2558 115.887 58.5314 116.246 59.1641C116.901 60.3182 117.631 61.4343 118.209 62.6248C118.465 63.1564 118.465 63.8266 118.522 64.4393C118.557 64.8186 118.602 65.0618 119.092 64.8688V57.4804L118.289 57.2264L118.28 56.9601C118.546 56.9139 118.812 56.8308 119.078 56.8267C120.855 56.8015 120.855 56.8072 120.855 58.5811V63.1185C122.015 63.3206 122.016 63.3207 122.016 64.4676C122.016 65.8418 122.016 67.216 122.016 68.7781H126.619L126.643 69.0818C126.448 69.1465 126.254 69.265 126.058 69.2676C124.803 69.2845 123.548 69.2635 122.293 69.2815C121.659 69.2902 121.442 68.9792 121.448 68.3875C121.461 67.0118 121.448 65.6355 121.454 64.2597C121.457 63.8569 121.352 63.6537 120.764 63.9051C120.867 65.1208 120.909 66.3898 121.092 67.6383C121.245 68.6877 120.776 69.7643 119.795 70.2175C118.832 70.6618 117.598 70.393 117.024 69.4939C116.733 69.0393 116.414 68.9731 115.955 68.9808C114.821 68.9997 113.686 68.9669 112.553 69.0044C112.325 69.0121 112.022 69.1865 111.893 69.3779C111.253 70.3288 110.219 70.687 109.264 70.2323C108.309 69.7777 107.964 68.774 108.257 67.6558C108.411 67.0651 108.386 66.4206 108.396 65.7997C108.416 64.5255 108.584 64.2931 109.851 63.9996ZM112.209 68.3768H115.467L116.39 65.8218C115.826 65.0064 115.011 64.5281 113.842 64.6184C112.813 64.6985 111.773 64.6354 110.738 64.6354C108.853 64.6354 108.839 64.6487 108.987 66.5263C108.99 66.5643 109.035 66.5992 109.06 66.6346C110.9 66.1712 111.666 66.5853 112.209 68.3768ZM113.106 59.4812L113.399 59.474C113.796 59.9528 113.556 60.547 113.594 61.0843C113.637 61.6734 113.604 62.2687 113.604 62.8619H117.749C117.006 61.5939 116.328 60.407 115.608 59.2477C115.489 59.0548 115.182 58.8798 114.955 58.8706C113.951 58.8295 112.946 58.8526 111.867 58.8526C111.867 59.9261 111.862 60.9319 111.867 61.9377C111.872 62.8342 112.02 62.9537 113.105 62.846L113.106 59.4812ZM110.418 64.0724C111.525 64.0724 112.516 64.1237 113.497 64.0596C114.749 63.9806 115.841 64.2007 116.661 65.2522C116.757 65.3758 117.088 65.4292 117.255 65.3666C118.045 65.0664 118.172 64.6205 117.833 63.4777C116.181 63.4777 114.517 63.4823 112.855 63.4777C111.692 63.4731 111.305 63.0769 111.299 61.8992C111.295 60.8919 111.299 59.8851 111.299 58.8341C110.868 58.8731 110.427 58.7058 110.421 59.296C110.411 60.859 110.418 62.4216 110.418 64.0724ZM118.802 66.3909C117.859 66.4134 117.068 67.2453 117.1 68.1802C117.132 69.128 117.962 69.9008 118.903 69.8608C119.824 69.8213 120.577 69.0321 120.568 68.1161C120.558 67.1729 119.734 66.3688 118.802 66.3909ZM110.141 66.9702C109.377 66.9625 108.713 67.6019 108.689 68.3706C108.682 68.5627 108.714 68.7542 108.782 68.9338C108.851 69.1135 108.954 69.2776 109.087 69.4165C109.22 69.5554 109.379 69.6663 109.556 69.7427C109.732 69.8191 109.922 69.8595 110.114 69.8613C110.914 69.8695 111.592 69.1906 111.578 68.3978C111.567 67.6409 110.9 66.9779 110.141 66.9702ZM120.075 63.2616L120.289 63.0748C120.289 61.3142 120.295 59.5536 120.277 57.7929C120.277 57.6595 120.101 57.5276 120.007 57.3952C119.904 57.5179 119.713 57.64 119.711 57.7642C119.692 59.454 119.689 61.1438 119.715 62.8337C119.717 62.9779 119.949 63.119 120.075 63.2616ZM120.229 66.1764C119.892 65.479 118.649 65.2978 117.652 65.8012C116.593 66.3365 115.985 67.5891 116.401 68.3798C116.786 66.1297 118.144 65.3261 120.228 66.1764H120.229ZM120.102 65.2712L120.287 65.1511C120.287 64.7919 120.298 64.4327 120.28 64.0776C120.275 63.9801 120.204 63.8405 120.126 63.8035C120.034 63.7615 119.805 63.7979 119.8 63.8256C119.749 64.1509 119.681 64.4871 119.721 64.8067C119.741 64.9751 119.967 65.1172 120.101 65.2712H120.102Z" fill="#B0B0B0"/>
<path fill-rule="evenodd" clip-rule="evenodd" d="M110.131 69.0349C110.457 69.0349 110.722 68.7707 110.722 68.4447C110.722 68.1188 110.457 67.8546 110.131 67.8546C109.805 67.8546 109.541 68.1188 109.541 68.4447C109.541 68.7707 109.805 69.0349 110.131 69.0349ZM110.131 69.4454C110.684 69.4454 111.132 68.9974 111.132 68.4447C111.132 67.8921 110.684 67.4441 110.131 67.4441C109.579 67.4441 109.131 67.8921 109.131 68.4447C109.131 68.9974 109.579 69.4454 110.131 69.4454Z" fill="#B0B0B0"/>
<path fill-rule="evenodd" clip-rule="evenodd" d="M118.855 68.9325C119.294 68.9325 119.65 68.5764 119.65 68.1371C119.65 67.6978 119.294 67.3417 118.855 67.3417C118.415 67.3417 118.059 67.6978 118.059 68.1371C118.059 68.5764 118.415 68.9325 118.855 68.9325ZM118.855 69.3943C119.549 69.3943 120.112 68.8315 120.112 68.1371C120.112 67.4428 119.549 66.8799 118.855 66.8799C118.16 66.8799 117.598 67.4428 117.598 68.1371C117.598 68.8315 118.16 69.3943 118.855 69.3943Z" fill="#B0B0B0"/>
</g>
<path d="M70.9337 62.9366L70.6655 62.706C70.5915 62.78 70.5027 62.868 70.4144 62.957C70.2278 63.1454 70.1099 63.138 69.9553 62.9282C69.6314 62.4881 69.3071 62.0482 68.9826 61.6083C68.6337 61.1359 68.6685 60.5685 69.0813 60.1516C69.5926 59.6338 70.1087 59.1214 70.6235 58.6076C70.7579 58.4735 70.9155 58.4752 71.0015 58.6076C71.0637 58.703 71.0471 58.8049 70.9468 58.9059C70.5467 59.3078 70.1459 59.7091 69.7443 60.1097C69.6277 60.2261 69.5103 60.3419 69.3951 60.4586C69.1444 60.7153 69.1182 61.0412 69.3261 61.3309C69.4336 61.4806 69.5448 61.6268 69.6466 61.7646L73.3104 58.0982C73.106 57.9663 72.8971 57.7961 72.6599 57.6884C72.4227 57.5806 72.1915 57.6669 72.0055 57.8482C71.8788 57.9715 71.7565 58.0987 71.6308 58.223C71.5097 58.3425 71.3815 58.3541 71.2838 58.2567C71.1862 58.1593 71.1975 58.037 71.3206 57.9115C71.4594 57.7712 71.5955 57.628 71.7397 57.4948C72.1175 57.1496 72.6619 57.1055 73.0801 57.4021C73.5658 57.7473 74.0417 58.1051 74.5203 58.4602C74.6529 58.5588 74.6623 58.6991 74.5449 58.8214C74.4436 58.9284 74.3329 59.0265 74.2197 59.1338C74.2547 59.1742 74.2764 59.2026 74.3013 59.2275C74.7508 59.6792 75.1998 60.1311 75.654 60.5779C75.7039 60.6226 75.7678 60.6488 75.8347 60.6519C76.1264 60.6595 76.4184 60.658 76.71 60.6519C76.7655 60.6516 76.8192 60.6322 76.8619 60.5969C77.3358 60.1284 77.8055 59.6572 78.276 59.1863C78.2875 59.1722 78.2982 59.1575 78.308 59.1422C78.2148 59.049 78.1206 58.9543 78.026 58.8598C77.8571 58.6914 77.8667 58.5691 78.0607 58.4259C78.5004 58.1014 78.9402 57.777 79.3799 57.4527C79.8765 57.0873 80.4384 57.1321 80.8736 57.5673C81.7246 58.42 82.5759 59.2718 83.4275 60.123C83.8671 60.5619 83.9098 61.1258 83.5399 61.6266C83.2145 62.0659 82.8899 62.5059 82.5662 62.9464C82.4304 63.1304 82.3029 63.14 82.1402 62.9753C82.048 62.8821 81.9604 62.7844 81.8598 62.6772C81.7723 62.78 81.6993 62.8656 81.6066 62.9748C81.6399 62.9935 81.6713 63.0153 81.7003 63.0401C82.1031 63.4289 82.3607 63.9438 82.4301 64.4993C82.4995 65.0548 82.3765 65.6172 82.0817 66.0931C82.0493 66.1495 82.0023 66.1962 81.9456 66.2282C81.8579 66.2709 81.7674 66.2504 81.7003 66.1723C81.6263 66.086 81.6263 65.9923 81.6863 65.8991C81.8342 65.6636 81.941 65.4109 81.9807 65.1347C82.0882 64.3896 81.8519 63.7692 81.3011 63.266L81.0075 63.5813C81.0915 63.68 81.2069 63.7922 81.2957 63.9226C81.8246 64.7005 81.5615 65.7472 80.7251 66.1984C80.6923 66.2129 80.6641 66.2361 80.6435 66.2655C80.6229 66.2949 80.6107 66.3293 80.6083 66.3651C80.5905 66.4884 80.5498 66.6117 80.5096 66.7729C80.6926 66.6898 80.8548 66.6178 81.0141 66.5429C81.0548 66.5239 81.0903 66.4935 81.1298 66.4721C81.2506 66.4053 81.3729 66.4346 81.4404 66.5461C81.5028 66.6486 81.474 66.7702 81.3613 66.8461C81.1147 67.0133 80.8464 67.1442 80.5525 67.1953C80.2993 67.2394 80.07 67.3062 79.8599 67.47C79.7297 67.5715 79.552 67.6241 79.3873 67.6657C79.2726 67.6946 79.2484 67.7397 79.2497 67.8467C79.2546 68.3648 79.255 68.8826 79.2509 69.4001C79.2482 69.8165 78.9427 70.1114 78.5455 70.0821C78.3058 70.0643 78.1226 69.9423 78.0173 69.729C77.9584 69.6099 77.8672 69.6597 77.7861 69.6486C77.7121 69.6388 77.6613 69.6553 77.6199 69.7339C77.5013 69.9583 77.3077 70.0791 77.0528 70.0833C76.7912 70.0865 76.5907 69.9655 76.4719 69.7361C76.4193 69.6348 76.3486 69.6484 76.2689 69.6484C76.1893 69.6484 76.1188 69.6353 76.0663 69.7366C75.9479 69.9662 75.7457 70.0865 75.4851 70.0833C75.2272 70.0813 75.0334 69.9581 74.9163 69.7329C74.8709 69.6454 74.8115 69.6417 74.7373 69.6486C74.6584 69.6558 74.576 69.6173 74.5183 69.7292C74.454 69.8595 74.3473 69.964 74.2158 70.0257C74.0842 70.0874 73.9357 70.1026 73.7944 70.0688C73.4899 69.9948 73.2926 69.7482 73.2857 69.424C73.2808 69.1981 73.2818 68.9718 73.2857 68.7457C73.287 68.67 73.2648 68.6305 73.1913 68.5977C72.6183 68.3445 72.2489 67.9155 72.0894 67.306C72.08 67.2817 72.0654 67.2598 72.0466 67.2418C72.0278 67.2237 72.0053 67.2101 71.9806 67.2017C71.0464 66.9472 70.4181 66.3621 70.1718 65.4286C69.9282 64.5052 70.1775 63.6908 70.8593 63.015C70.8824 62.9925 70.9039 62.9684 70.9337 62.9366ZM72.9869 65.1638C73.03 65.1239 73.0608 65.0972 73.089 65.0689C73.8416 64.3339 74.594 63.5987 75.346 62.8631C75.8527 62.368 76.4753 62.3206 77.053 62.7351C77.8198 63.2868 78.5852 63.8405 79.349 64.3962C79.4644 64.4798 79.5808 64.5624 79.7113 64.6559C79.7564 64.5166 79.7921 64.3916 79.838 64.2705C79.8678 64.1911 79.8548 64.1388 79.7929 64.0769C78.8204 63.1086 77.8491 62.1393 76.8789 61.1692C76.8325 61.1267 76.7729 61.1015 76.71 61.0979C76.4186 61.091 76.1267 61.0905 75.8352 61.0979C75.7683 61.1011 75.7046 61.1272 75.6547 61.1719C74.7368 62.0842 73.8301 63.0068 72.9023 63.9088C72.7129 64.093 72.6557 64.2441 72.7642 64.4855C72.8577 64.6988 72.9114 64.9281 72.9869 65.1638ZM79.2233 58.1147L82.8809 61.7775C82.9795 61.6433 83.0818 61.5062 83.1824 61.3672C83.429 61.0257 83.4043 60.7202 83.1028 60.4206C82.7684 60.0871 82.4345 59.7531 82.101 59.4186C81.5809 58.8986 81.061 58.3789 80.5412 57.8593C80.3099 57.6297 79.998 57.5804 79.7428 57.7417C79.5633 57.8556 79.3976 57.9892 79.2233 58.1147ZM78.7741 64.5254L77.5237 63.627C77.4268 64.4347 77.0244 64.8896 76.3791 64.9434C76.0857 64.9727 75.7916 64.8938 75.5522 64.7215C75.2417 64.501 75.0711 64.1946 75.0211 63.7964L73.7961 64.9952C74.3935 64.9742 74.8724 65.1643 75.2627 65.5623C75.653 65.9602 75.8165 66.4568 75.7977 67.0239C75.812 67.0156 75.8257 67.0065 75.8389 66.9965L77.1324 65.7275C77.361 65.5028 77.5923 65.2809 77.8166 65.0521C78.0763 64.7878 78.3763 64.5994 78.7741 64.5257V64.5254ZM73.9108 65.4336C73.5303 65.4353 73.166 65.5876 72.8974 65.8571C72.6288 66.1267 72.4779 66.4915 72.4775 66.872C72.4792 67.6591 73.1289 68.3061 73.9169 68.3061C74.1071 68.3081 74.2958 68.2724 74.4721 68.2009C74.6484 68.1294 74.8087 68.0237 74.9438 67.8898C75.0789 67.7559 75.186 67.5965 75.259 67.4208C75.3319 67.2452 75.3693 67.0568 75.3689 66.8666C75.3685 66.6764 75.3303 66.4881 75.2566 66.3128C75.1829 66.1375 75.075 65.9785 74.9394 65.8452C74.8037 65.7118 74.643 65.6068 74.4664 65.5361C74.2898 65.4654 74.101 65.4304 73.9108 65.4333V65.4336ZM73.5801 59.8177C73.6842 59.9164 73.7892 60.015 73.8918 60.1154C73.9944 60.2157 74.0964 60.3173 74.1963 60.4211C74.4702 60.7098 74.4387 61.148 74.1285 61.3886C73.8679 61.5906 73.5177 61.5662 73.2655 61.3201C73.0636 61.1228 72.8693 60.9169 72.676 60.7194L72.2346 61.1556C72.2691 61.1739 72.3135 61.1864 72.3424 61.2145C72.5216 61.3899 72.7018 61.5642 72.8735 61.7474C73.1077 61.9972 73.122 62.3475 72.9181 62.6022C72.673 62.9082 72.2385 62.9334 71.9501 62.6515C71.7449 62.4516 71.5469 62.2442 71.3529 62.0475L71.0301 62.3638L72.4087 63.7446L75.2888 60.8666L73.9081 59.4859L73.5801 59.8177ZM77.2525 60.8649L80.1334 63.7525L81.5026 62.384L81.1781 62.0487C80.9808 62.2506 80.7836 62.4605 80.5762 62.6599C80.3898 62.8397 80.1637 62.8971 79.9159 62.8108C79.6681 62.7245 79.5229 62.5468 79.4837 62.2898C79.4487 62.061 79.533 61.8707 79.695 61.7116C79.8922 61.5198 80.0875 61.328 80.2806 61.1389L79.8698 60.7266C79.8434 60.7513 79.8133 60.7784 79.785 60.8067C79.6124 60.9793 79.4422 61.1499 79.2701 61.3208C79.1183 61.4712 78.9363 61.5452 78.7223 61.5163C78.458 61.4808 78.276 61.3327 78.1894 61.0817C78.1029 60.8306 78.1648 60.6011 78.349 60.4125C78.5497 60.2078 78.7578 60.0106 78.957 59.8155L78.6271 59.4854L77.2525 60.8649ZM79.026 67.2705C79.256 67.2714 79.4811 67.2041 79.6727 67.077C79.8644 66.9499 80.014 66.7689 80.1027 66.5567C80.1914 66.3445 80.2151 66.1108 80.1708 65.8852C80.1266 65.6595 80.0164 65.452 79.8542 65.2891C79.692 65.1261 79.485 65.0149 79.2596 64.9696C79.0341 64.9243 78.8003 64.9469 78.5877 65.0346C78.3751 65.1223 78.1934 65.2711 78.0654 65.4622C77.9374 65.6532 77.8691 65.878 77.8689 66.1079C77.8691 66.4152 77.9909 66.71 78.2077 66.9278C78.4245 67.1457 78.7187 67.2688 79.026 67.2705ZM73.717 58.4143L69.9497 62.1786L70.2007 62.5162L74.053 58.6653L73.717 58.4143ZM82.5934 62.1685L78.8317 58.4054L78.4866 58.6604L82.3379 62.513L82.5934 62.1685ZM76.2677 64.5089C76.4267 64.509 76.5821 64.4619 76.7144 64.3737C76.8467 64.2854 76.9498 64.16 77.0109 64.0132C77.0719 63.8664 77.088 63.7047 77.0573 63.5487C77.0265 63.3928 76.9502 63.2494 76.8381 63.1367C76.7259 63.024 76.5828 62.9471 76.427 62.9157C76.2711 62.8843 76.1094 62.8997 75.9623 62.9601C75.8152 63.0205 75.6894 63.1232 75.6006 63.255C75.5118 63.3869 75.464 63.5422 75.4634 63.7012C75.4627 63.8072 75.483 63.9122 75.5232 64.0103C75.5633 64.1084 75.6225 64.1975 75.6972 64.2726C75.772 64.3477 75.8609 64.4073 75.9588 64.4478C76.0567 64.4884 76.1617 64.5092 76.2677 64.5089ZM71.5452 63.5801L71.2281 63.282C70.6677 63.6896 70.3898 64.5804 70.5991 65.3438C70.8242 66.1624 71.5361 66.6649 72.0351 66.7406C72.0598 66.6048 72.0844 66.4691 72.1091 66.3333C70.9041 65.992 70.5506 64.4135 71.5452 63.5801ZM71.8773 63.8831C71.5134 64.1756 71.3519 64.543 71.4269 64.9887C71.5018 65.4345 71.772 65.7299 72.1966 65.8867C72.2706 65.9144 72.3118 65.9008 72.3564 65.8327C72.419 65.7373 72.5043 65.6567 72.568 65.5615C72.5946 65.5218 72.6128 65.4565 72.5998 65.4136C72.5066 65.1034 72.3848 64.8004 72.3108 64.4862C72.2472 64.2192 72.0655 64.0622 71.8773 63.8831ZM80.5986 65.7664C80.9478 65.5199 81.128 65.2038 81.1246 64.7964C81.1214 64.417 80.9626 64.1127 80.6418 63.8757C80.5215 64.0138 80.3817 64.1282 80.3038 64.2754C80.2133 64.448 80.1741 64.6453 80.1196 64.8351C80.1147 64.8553 80.1145 64.8762 80.1187 64.8965C80.123 64.9167 80.1317 64.9358 80.1442 64.9523C80.3666 65.1761 80.5151 65.4405 80.5986 65.7664ZM77.4251 66.0963L77.393 66.081C77.0141 66.4829 76.6351 66.8848 76.2781 67.2631H77.9182C77.591 66.927 77.4325 66.5426 77.4251 66.0963ZM76.8279 67.7219V68.8204C76.8279 69.0213 76.8252 69.2223 76.8294 69.4233C76.8318 69.551 76.9172 69.6375 77.0325 69.6425C77.1546 69.6476 77.2446 69.5633 77.2569 69.4304C77.2604 69.3939 77.2587 69.3564 77.2587 69.3197V68.077C77.2596 67.6798 77.2596 67.6798 76.8289 67.7219H76.8279ZM78.3813 67.7266V68.6929C78.3813 68.9353 78.3793 69.1779 78.3825 69.4203C78.384 69.5502 78.4656 69.6363 78.582 69.6422C78.7053 69.6486 78.7953 69.565 78.8076 69.4316C78.811 69.3951 78.8093 69.3577 78.8093 69.3209C78.8093 68.9018 78.8093 68.4826 78.8093 68.0634C78.8103 67.6623 78.8103 67.6623 78.3823 67.7266H78.3813ZM75.7065 67.7819L75.6607 67.7528C75.5445 67.8793 75.4259 68.0035 75.3155 68.134C75.2902 68.17 75.2771 68.2132 75.2782 68.2572C75.2755 68.6305 75.276 69.0038 75.2782 69.3774C75.2782 69.55 75.3616 69.6462 75.5001 69.6432C75.6325 69.6402 75.7092 69.5446 75.7095 69.3791C75.7095 68.9812 75.7095 68.5832 75.7095 68.1852L75.7065 67.7819ZM73.2741 60.1228L72.9701 60.4073C73.1794 60.6144 73.3814 60.8183 73.588 61.0168C73.682 61.107 73.803 61.1016 73.8839 61.0168C73.9648 60.932 73.9672 60.8203 73.879 60.7291C73.6795 60.5232 73.4743 60.323 73.2741 60.1228ZM79.2743 60.12C79.0638 60.3276 78.851 60.5313 78.6463 60.7426C78.5652 60.8265 78.5778 60.9431 78.6559 61.0198C78.7341 61.0964 78.8502 61.1075 78.9338 61.0272C79.1446 60.8245 79.3483 60.6132 79.5579 60.4024C79.4595 60.3055 79.3673 60.2142 79.2743 60.12ZM71.6601 61.7351C71.8613 61.9372 72.0615 62.1429 72.2667 62.3431C72.3564 62.4306 72.4718 62.4272 72.5539 62.3478C72.574 62.3298 72.5901 62.308 72.6014 62.2835C72.6127 62.2591 72.6189 62.2326 72.6196 62.2057C72.6202 62.1788 72.6154 62.152 72.6053 62.1271C72.5953 62.1021 72.5802 62.0794 72.5611 62.0605C72.3594 61.8509 72.1503 61.6488 71.9402 61.4394L71.6601 61.7351ZM80.6014 61.4426C80.3846 61.6566 80.1686 61.8618 79.962 62.0778C79.888 62.1559 79.9053 62.2718 79.979 62.3456C80.0527 62.4193 80.1699 62.4348 80.2465 62.3603C80.4606 62.1527 80.6657 61.9363 80.8746 61.724L80.6014 61.4426ZM76.3789 69.1989V67.7224H76.1545V69.1989H76.3789ZM77.7072 67.7195V69.1989H77.932V67.7195H77.7072ZM73.732 68.7437C73.732 68.9923 73.7244 69.2327 73.7355 69.4723C73.7406 69.582 73.8464 69.6494 73.9554 69.6422C74.0071 69.64 74.0561 69.6182 74.0923 69.5812C74.1286 69.5442 74.1493 69.4948 74.1504 69.443C74.1563 69.2997 74.1529 69.1562 74.1531 69.0127C74.1531 68.9208 74.1531 68.8285 74.1531 68.7437H73.732ZM74.8265 68.5013C74.7341 68.5613 74.6132 68.5985 74.6046 68.6517C74.5799 68.8305 74.595 69.0149 74.595 69.1942H74.8361C74.8361 68.995 74.8361 68.8071 74.8361 68.6194C74.8347 68.5923 74.8312 68.5647 74.8265 68.5013Z" fill="#B0B0B0"/>
<path d="M73.9107 67.5303C73.7801 67.5289 73.6527 67.4889 73.5448 67.4152C73.4368 67.3416 73.3531 67.2376 73.3041 67.1164C73.2551 66.9953 73.2431 66.8623 73.2696 66.7344C73.296 66.6064 73.3597 66.4891 73.4527 66.3973C73.5457 66.3054 73.6638 66.2432 73.7921 66.2184C73.9204 66.1935 74.0532 66.2072 74.1737 66.2577C74.2942 66.3082 74.3971 66.3933 74.4694 66.5021C74.5417 66.611 74.5802 66.7388 74.5799 66.8695C74.5798 66.957 74.5623 67.0435 74.5285 67.1242C74.4947 67.2048 74.4453 67.278 74.3831 67.3394C74.3208 67.4008 74.2471 67.4493 74.166 67.4821C74.0849 67.5149 73.9982 67.5313 73.9107 67.5303ZM73.9107 67.0902C73.9549 67.0909 73.9982 67.0785 74.0352 67.0545C74.0722 67.0305 74.1013 66.9959 74.1186 66.9553C74.1359 66.9148 74.1407 66.8699 74.1324 66.8266C74.1241 66.7832 74.103 66.7434 74.072 66.712C74.0409 66.6807 74.0012 66.6594 73.9579 66.6507C73.9146 66.6421 73.8697 66.6465 73.829 66.6635C73.7883 66.6805 73.7535 66.7092 73.7292 66.7461C73.7049 66.7829 73.6921 66.8261 73.6925 66.8703C73.693 66.928 73.716 66.9832 73.7565 67.0243C73.7971 67.0653 73.8521 67.089 73.9098 67.0902H73.9107Z" fill="#B0B0B0"/>
<path d="M79.0309 66.7728C78.8998 66.7728 78.7717 66.734 78.6626 66.6612C78.5535 66.5885 78.4684 66.485 78.4181 66.364C78.3677 66.2429 78.3544 66.1097 78.3797 65.981C78.4049 65.8524 78.4678 65.7341 78.5602 65.6411C78.6526 65.5481 78.7705 65.4846 78.899 65.4586C79.0275 65.4325 79.1609 65.4451 79.2822 65.4947C79.4036 65.5443 79.5075 65.6288 79.5809 65.7374C79.6543 65.8461 79.6939 65.974 79.6947 66.1051C79.695 66.1926 79.678 66.2792 79.6448 66.36C79.6116 66.4409 79.5627 66.5144 79.5011 66.5764C79.4395 66.6384 79.3662 66.6877 79.2855 66.7214C79.2049 66.7551 79.1184 66.7726 79.0309 66.7728ZM79.2528 66.1086C79.2527 66.0794 79.2469 66.0504 79.2356 66.0235C79.2243 65.9965 79.2078 65.9721 79.1871 65.9515C79.1663 65.9309 79.1417 65.9146 79.1147 65.9035C79.0876 65.8924 79.0587 65.8868 79.0295 65.8869C79.0002 65.887 78.9713 65.8929 78.9444 65.9042C78.9174 65.9155 78.8929 65.932 78.8724 65.9527C78.8518 65.9734 78.8355 65.998 78.8244 66.0251C78.8133 66.0521 78.8077 66.0811 78.8078 66.1103C78.808 66.1693 78.8317 66.2258 78.8736 66.2674C78.9155 66.309 78.9722 66.3322 79.0312 66.332C79.0902 66.3317 79.1467 66.3081 79.1883 66.2662C79.2298 66.2243 79.2531 66.1676 79.2528 66.1086Z" fill="#B0B0B0"/>
</g>
</g>
<path d="M15.704 58.108C14.872 58.108 14.16 57.932 13.568 57.58C12.976 57.228 12.52 56.728 12.2 56.08C11.888 55.432 11.732 54.66 11.732 53.764C11.732 52.876 11.888 52.108 12.2 51.46C12.52 50.812 12.976 50.312 13.568 49.96C14.16 49.608 14.872 49.432 15.704 49.432C16.288 49.432 16.824 49.524 17.312 49.708C17.808 49.892 18.228 50.16 18.572 50.512L18.188 51.316C17.82 50.972 17.436 50.724 17.036 50.572C16.644 50.412 16.208 50.332 15.728 50.332C14.776 50.332 14.048 50.632 13.544 51.232C13.04 51.832 12.788 52.676 12.788 53.764C12.788 54.86 13.04 55.708 13.544 56.308C14.048 56.908 14.776 57.208 15.728 57.208C16.208 57.208 16.644 57.132 17.036 56.98C17.436 56.82 17.82 56.568 18.188 56.224L18.572 57.028C18.228 57.372 17.808 57.64 17.312 57.832C16.824 58.016 16.288 58.108 15.704 58.108ZM20.0342 58V52.168H21.0062V54.604H22.0982L24.0062 52.168H25.0742L23.0462 54.796C23.2542 54.876 23.4422 55.008 23.6102 55.192C23.7782 55.376 23.9662 55.64 24.1742 55.984L25.3742 58H24.3302L23.2742 56.236C23.0742 55.892 22.8822 55.664 22.6982 55.552C22.5142 55.44 22.2542 55.384 21.9182 55.384H21.0062V58H20.0342ZM26.3506 58V52.168H27.2386V56.68L30.6106 52.168H31.4386V58H30.5506V53.488L27.1786 58H26.3506ZM32.7224 59.56V57.22H33.3344C33.6144 56.812 33.8144 56.344 33.9344 55.816C34.0544 55.28 34.1144 54.636 34.1144 53.884V52.168H38.2424V57.22H39.1664V59.56H38.3264V58H33.5504V59.56H32.7224ZM34.2704 57.22H37.3184V52.936H34.9784V54.052C34.9784 54.652 34.9184 55.232 34.7984 55.792C34.6784 56.352 34.5024 56.828 34.2704 57.22ZM40.46 58V52.168H41.432V54.604H42.524L44.432 52.168H45.5L43.472 54.796C43.68 54.876 43.868 55.008 44.036 55.192C44.204 55.376 44.392 55.64 44.6 55.984L45.8 58H44.756L43.7 56.236C43.5 55.892 43.308 55.664 43.124 55.552C42.94 55.44 42.68 55.384 42.344 55.384H41.432V58H40.46ZM48.6244 58.108C48.2244 58.108 47.8644 58.032 47.5444 57.88C47.2324 57.72 46.9844 57.504 46.8004 57.232C46.6164 56.96 46.5244 56.656 46.5244 56.32C46.5244 55.896 46.6324 55.56 46.8484 55.312C47.0724 55.064 47.4364 54.888 47.9404 54.784C48.4524 54.672 49.1484 54.616 50.0284 54.616H50.4124V54.244C50.4124 53.748 50.3084 53.392 50.1004 53.176C49.9004 52.952 49.5764 52.84 49.1284 52.84C48.7764 52.84 48.4364 52.892 48.1084 52.996C47.7804 53.092 47.4444 53.252 47.1004 53.476L46.7644 52.768C47.0684 52.552 47.4364 52.38 47.8684 52.252C48.3084 52.124 48.7284 52.06 49.1284 52.06C49.8804 52.06 50.4364 52.244 50.7964 52.612C51.1644 52.98 51.3484 53.552 51.3484 54.328V58H50.4364V56.992C50.2844 57.336 50.0484 57.608 49.7284 57.808C49.4164 58.008 49.0484 58.108 48.6244 58.108ZM48.7804 57.376C49.2604 57.376 49.6524 57.212 49.9564 56.884C50.2604 56.548 50.4124 56.124 50.4124 55.612V55.252H50.0404C49.3924 55.252 48.8804 55.284 48.5044 55.348C48.1364 55.404 47.8764 55.508 47.7244 55.66C47.5804 55.804 47.5084 56.004 47.5084 56.26C47.5084 56.588 47.6204 56.856 47.8444 57.064C48.0764 57.272 48.3884 57.376 48.7804 57.376ZM60.0712 58V55.636C59.6232 55.908 59.1072 56.044 58.5232 56.044C57.6912 56.044 57.0752 55.848 56.6752 55.456C56.2752 55.056 56.0752 54.452 56.0752 53.644V52.168H57.0472V53.572C57.0472 54.148 57.1712 54.568 57.4192 54.832C57.6752 55.096 58.0832 55.228 58.6432 55.228C58.9312 55.228 59.1832 55.196 59.3992 55.132C59.6232 55.068 59.8432 54.964 60.0592 54.82V52.168H61.0312V58H60.0712ZM65.5883 58.108C64.6683 58.108 63.9403 57.84 63.4043 57.304C62.8683 56.76 62.6003 56.024 62.6003 55.096C62.6003 54.496 62.7203 53.968 62.9603 53.512C63.2003 53.048 63.5283 52.692 63.9443 52.444C64.3683 52.188 64.8563 52.06 65.4083 52.06C66.2003 52.06 66.8203 52.316 67.2683 52.828C67.7163 53.332 67.9403 54.028 67.9403 54.916V55.288H63.5483C63.5803 55.952 63.7723 56.46 64.1243 56.812C64.4763 57.156 64.9643 57.328 65.5883 57.328C65.9403 57.328 66.2763 57.276 66.5963 57.172C66.9163 57.06 67.2203 56.88 67.5083 56.632L67.8443 57.316C67.5803 57.564 67.2443 57.76 66.8363 57.904C66.4283 58.04 66.0123 58.108 65.5883 58.108ZM65.4323 52.78C64.8803 52.78 64.4443 52.952 64.1243 53.296C63.8043 53.64 63.6163 54.092 63.5603 54.652H67.1003C67.0763 54.06 66.9203 53.6 66.6323 53.272C66.3523 52.944 65.9523 52.78 65.4323 52.78ZM69.4642 60.16V52.168H70.4122V53.212C70.5882 52.852 70.8482 52.572 71.1922 52.372C71.5442 52.164 71.9522 52.06 72.4162 52.06C72.9362 52.06 73.3882 52.184 73.7722 52.432C74.1642 52.672 74.4642 53.02 74.6722 53.476C74.8882 53.924 74.9962 54.46 74.9962 55.084C74.9962 55.7 74.8882 56.236 74.6722 56.692C74.4642 57.14 74.1642 57.488 73.7722 57.736C73.3882 57.984 72.9362 58.108 72.4162 58.108C71.9682 58.108 71.5682 58.008 71.2162 57.808C70.8642 57.608 70.6042 57.332 70.4362 56.98V60.16H69.4642ZM72.2122 57.328C72.7562 57.328 73.1922 57.136 73.5202 56.752C73.8482 56.36 74.0122 55.804 74.0122 55.084C74.0122 54.356 73.8482 53.8 73.5202 53.416C73.1922 53.032 72.7562 52.84 72.2122 52.84C71.6682 52.84 71.2322 53.032 70.9042 53.416C70.5762 53.8 70.4122 54.356 70.4122 55.084C70.4122 55.804 70.5762 56.36 70.9042 56.752C71.2322 57.136 71.6682 57.328 72.2122 57.328ZM79.2055 58.108C78.2855 58.108 77.5575 57.84 77.0215 57.304C76.4855 56.76 76.2175 56.024 76.2175 55.096C76.2175 54.496 76.3375 53.968 76.5775 53.512C76.8175 53.048 77.1455 52.692 77.5615 52.444C77.9855 52.188 78.4735 52.06 79.0255 52.06C79.8175 52.06 80.4375 52.316 80.8855 52.828C81.3335 53.332 81.5575 54.028 81.5575 54.916V55.288H77.1655C77.1975 55.952 77.3895 56.46 77.7415 56.812C78.0935 57.156 78.5815 57.328 79.2055 57.328C79.5575 57.328 79.8935 57.276 80.2135 57.172C80.5335 57.06 80.8375 56.88 81.1255 56.632L81.4615 57.316C81.1975 57.564 80.8615 57.76 80.4535 57.904C80.0455 58.04 79.6295 58.108 79.2055 58.108ZM79.0495 52.78C78.4975 52.78 78.0615 52.952 77.7415 53.296C77.4215 53.64 77.2335 54.092 77.1775 54.652H80.7175C80.6935 54.06 80.5375 53.6 80.2495 53.272C79.9695 52.944 79.5695 52.78 79.0495 52.78ZM85.0014 58.108C84.4974 58.108 84.0214 58.044 83.5734 57.916C83.1334 57.78 82.7774 57.592 82.5054 57.352L82.8174 56.668C83.0974 56.892 83.4254 57.064 83.8014 57.184C84.1774 57.296 84.5694 57.352 84.9774 57.352C85.5534 57.352 85.9654 57.268 86.2134 57.1C86.4694 56.932 86.5974 56.684 86.5974 56.356C86.5974 55.724 86.1934 55.408 85.3854 55.408H84.0054V54.676H85.2654C85.6094 54.676 85.8814 54.596 86.0814 54.436C86.2894 54.276 86.3934 54.052 86.3934 53.764C86.3934 53.476 86.2814 53.248 86.0574 53.08C85.8334 52.904 85.4734 52.816 84.9774 52.816C84.2014 52.816 83.5134 53.028 82.9134 53.452L82.6014 52.768C83.2574 52.296 84.0894 52.06 85.0974 52.06C85.8414 52.06 86.3974 52.204 86.7654 52.492C87.1334 52.78 87.3174 53.184 87.3174 53.704C87.3174 54 87.2294 54.264 87.0534 54.496C86.8854 54.72 86.6534 54.884 86.3574 54.988C86.7174 55.076 87.0014 55.244 87.2094 55.492C87.4174 55.732 87.5214 56.032 87.5214 56.392C87.5214 56.912 87.3094 57.328 86.8854 57.64C86.4614 57.952 85.8334 58.108 85.0014 58.108ZM11.96 71V65.168H12.932V67.604H14.024L15.932 65.168H17L14.972 67.796C15.18 67.876 15.368 68.008 15.536 68.192C15.704 68.376 15.892 68.64 16.1 68.984L17.3 71H16.256L15.2 69.236C15 68.892 14.808 68.664 14.624 68.552C14.44 68.44 14.18 68.384 13.844 68.384H12.932V71H11.96ZM20.7124 71.108C20.1444 71.108 19.6524 70.984 19.2364 70.736C18.8204 70.488 18.4964 70.14 18.2644 69.692C18.0404 69.236 17.9284 68.7 17.9284 68.084C17.9284 67.468 18.0404 66.936 18.2644 66.488C18.4964 66.032 18.8204 65.68 19.2364 65.432C19.6524 65.184 20.1444 65.06 20.7124 65.06C21.2724 65.06 21.7604 65.184 22.1764 65.432C22.6004 65.68 22.9244 66.032 23.1484 66.488C23.3804 66.936 23.4964 67.468 23.4964 68.084C23.4964 68.7 23.3804 69.236 23.1484 69.692C22.9244 70.14 22.6004 70.488 22.1764 70.736C21.7604 70.984 21.2724 71.108 20.7124 71.108ZM20.7124 70.328C21.2564 70.328 21.6924 70.136 22.0204 69.752C22.3484 69.36 22.5124 68.804 22.5124 68.084C22.5124 67.356 22.3484 66.8 22.0204 66.416C21.6924 66.032 21.2564 65.84 20.7124 65.84C20.1604 65.84 19.7204 66.032 19.3924 66.416C19.0724 66.8 18.9124 67.356 18.9124 68.084C18.9124 68.804 19.0724 69.36 19.3924 69.752C19.7204 70.136 20.1604 70.328 20.7124 70.328ZM25.0853 73.16V65.168H26.0333V66.212C26.2093 65.852 26.4693 65.572 26.8133 65.372C27.1653 65.164 27.5733 65.06 28.0373 65.06C28.5573 65.06 29.0093 65.184 29.3933 65.432C29.7853 65.672 30.0853 66.02 30.2933 66.476C30.5093 66.924 30.6173 67.46 30.6173 68.084C30.6173 68.7 30.5093 69.236 30.2933 69.692C30.0853 70.14 29.7853 70.488 29.3933 70.736C29.0093 70.984 28.5573 71.108 28.0373 71.108C27.5893 71.108 27.1893 71.008 26.8373 70.808C26.4853 70.608 26.2253 70.332 26.0573 69.98V73.16H25.0853ZM27.8333 70.328C28.3773 70.328 28.8133 70.136 29.1413 69.752C29.4693 69.36 29.6333 68.804 29.6333 68.084C29.6333 67.356 29.4693 66.8 29.1413 66.416C28.8133 66.032 28.3773 65.84 27.8333 65.84C27.2893 65.84 26.8533 66.032 26.5253 66.416C26.1973 66.8 26.0333 67.356 26.0333 68.084C26.0333 68.804 26.1973 69.36 26.5253 69.752C26.8533 70.136 27.2893 70.328 27.8333 70.328ZM34.1186 71.108C33.6146 71.108 33.1386 71.044 32.6906 70.916C32.2506 70.78 31.8946 70.592 31.6226 70.352L31.9346 69.668C32.2146 69.892 32.5426 70.064 32.9186 70.184C33.2946 70.296 33.6866 70.352 34.0946 70.352C34.6706 70.352 35.0826 70.268 35.3306 70.1C35.5866 69.932 35.7146 69.684 35.7146 69.356C35.7146 68.724 35.3106 68.408 34.5026 68.408H33.1226V67.676H34.3826C34.7266 67.676 34.9986 67.596 35.1986 67.436C35.4066 67.276 35.5106 67.052 35.5106 66.764C35.5106 66.476 35.3986 66.248 35.1746 66.08C34.9506 65.904 34.5906 65.816 34.0946 65.816C33.3186 65.816 32.6306 66.028 32.0306 66.452L31.7186 65.768C32.3746 65.296 33.2066 65.06 34.2146 65.06C34.9586 65.06 35.5146 65.204 35.8826 65.492C36.2506 65.78 36.4346 66.184 36.4346 66.704C36.4346 67 36.3466 67.264 36.1706 67.496C36.0026 67.72 35.7706 67.884 35.4746 67.988C35.8346 68.076 36.1186 68.244 36.3266 68.492C36.5346 68.732 36.6386 69.032 36.6386 69.392C36.6386 69.912 36.4266 70.328 36.0026 70.64C35.5786 70.952 34.9506 71.108 34.1186 71.108ZM38.1514 71V65.168H39.0394V69.68L42.4114 65.168H43.2394V71H42.3514V66.488L38.9794 71H38.1514ZM45.1592 71V65.168H46.1312V67.592H49.3112V65.168H50.2832V71H49.3112V68.384H46.1312V71H45.1592ZM52.8862 73.16L53.8822 70.904L51.4222 65.168H52.4782L54.4102 69.896L56.3542 65.168H57.3742L53.9062 73.16H52.8862ZM62.1052 71V70.16H64.0372V63.728L62.5132 64.688L62.0932 63.956L64.3132 62.54H65.0212V70.16H66.8332V71H62.1052ZM69.3005 71V70.16H71.2325V63.728L69.7085 64.688L69.2885 63.956L71.5085 62.54H72.2165V70.16H74.0285V71H69.3005ZM81.5218 71.3L80.8378 70.904L85.8178 62.24L86.4898 62.636L81.5218 71.3ZM80.8018 67.616C80.1618 67.616 79.6618 67.388 79.3018 66.932C78.9418 66.476 78.7618 65.84 78.7618 65.024C78.7618 64.208 78.9418 63.576 79.3018 63.128C79.6618 62.672 80.1618 62.444 80.8018 62.444C81.4338 62.444 81.9298 62.672 82.2898 63.128C82.6578 63.576 82.8418 64.208 82.8418 65.024C82.8418 65.84 82.6578 66.476 82.2898 66.932C81.9298 67.388 81.4338 67.616 80.8018 67.616ZM80.8018 66.908C81.1698 66.908 81.4618 66.752 81.6778 66.44C81.8938 66.12 82.0018 65.648 82.0018 65.024C82.0018 64.4 81.8938 63.932 81.6778 63.62C81.4618 63.308 81.1698 63.152 80.8018 63.152C80.4258 63.152 80.1298 63.308 79.9138 63.62C79.7058 63.932 79.6018 64.4 79.6018 65.024C79.6018 65.648 79.7058 66.12 79.9138 66.44C80.1298 66.752 80.4258 66.908 80.8018 66.908ZM86.5378 71.108C85.9058 71.108 85.4058 70.88 85.0378 70.424C84.6778 69.968 84.4978 69.332 84.4978 68.516C84.4978 67.708 84.6778 67.076 85.0378 66.62C85.4058 66.164 85.9058 65.936 86.5378 65.936C87.1778 65.936 87.6778 66.164 88.0378 66.62C88.3978 67.076 88.5778 67.708 88.5778 68.516C88.5778 69.332 88.3978 69.968 88.0378 70.424C87.6778 70.88 87.1778 71.108 86.5378 71.108ZM86.5378 70.4C86.9138 70.4 87.2058 70.244 87.4138 69.932C87.6298 69.612 87.7378 69.14 87.7378 68.516C87.7378 67.892 87.6298 67.424 87.4138 67.112C87.2058 66.8 86.9138 66.644 86.5378 66.644C86.1698 66.644 85.8778 66.8 85.6618 67.112C85.4538 67.424 85.3498 67.892 85.3498 68.516C85.3498 69.148 85.4538 69.62 85.6618 69.932C85.8778 70.244 86.1698 70.4 86.5378 70.4Z" fill="white"/>
<rect x="11" y="8" width="30" height="30" rx="2" fill="white" fill-opacity="0.2"/>
<rect x="16" y="13" width="20" height="20" rx="2" fill="white"/>
<path fill-rule="evenodd" clip-rule="evenodd" d="M20.1953 27.862L30.8619 17.1953L31.8047 18.1381L21.1381 28.8048L20.1953 27.862Z" fill="#ED1C24"/>
<path fill-rule="evenodd" clip-rule="evenodd" d="M22.3333 21.6667C23.2538 21.6667 24 20.9205 24 20C24 19.0795 23.2538 18.3333 22.3333 18.3333C21.4129 18.3333 20.6667 19.0795 20.6667 20C20.6667 20.9205 21.4129 21.6667 22.3333 21.6667ZM22.3333 23C23.9902 23 25.3333 21.6569 25.3333 20C25.3333 18.3431 23.9902 17 22.3333 17C20.6765 17 19.3333 18.3431 19.3333 20C19.3333 21.6569 20.6765 23 22.3333 23Z" fill="#ED1C24"/>
<path fill-rule="evenodd" clip-rule="evenodd" d="M29.6667 27.6667C30.5871 27.6667 31.3333 26.9205 31.3333 26C31.3333 25.0795 30.5871 24.3333 29.6667 24.3333C28.7462 24.3333 28 25.0795 28 26C28 26.9205 28.7462 27.6667 29.6667 27.6667ZM29.6667 29C31.3235 29 32.6667 27.6569 32.6667 26C32.6667 24.3431 31.3235 23 29.6667 23C28.0098 23 26.6667 24.3431 26.6667 26C26.6667 27.6569 28.0098 29 29.6667 29Z" fill="#ED1C24"/>
</svg>
