<svg width="14" height="18" viewBox="0 0 14 18" fill="none" xmlns="http://www.w3.org/2000/svg">
<g id="Bookmark">
<path id="Path_33968" fill-rule="evenodd" clip-rule="evenodd" d="M6.72064 14.5262L1.77784 17.2341C1.3832 17.4392 0.897009 17.294 0.679445 16.9061V16.9061C0.616501 16.7859 0.582542 16.6527 0.580284 16.5171V4.5186C0.580284 2.23027 2.14398 1.31494 4.39417 1.31494H9.68021C11.8617 1.31494 13.4941 2.16925 13.4941 4.36605V16.5171C13.4941 16.7335 13.4081 16.9411 13.255 17.0942C13.102 17.2473 12.8944 17.3332 12.6779 17.3332C12.5398 17.3311 12.4041 17.2971 12.2813 17.2341L7.30797 14.5262C7.12471 14.4272 6.9039 14.4272 6.72064 14.5262Z" stroke="#14121A" stroke-linecap="round" stroke-linejoin="round"/>
<path id="Line_209" d="M3.97464 6.76884H10.054" stroke="#14121A" stroke-linecap="round" stroke-linejoin="round"/>
</g>
</svg>
