<svg width="100" height="18" viewBox="0 0 100 18" fill="none" xmlns="http://www.w3.org/2000/svg">
<g id="Group 60042">
<path id="Vector" d="M0 0V17.8571H17.5071V0H0ZM2.17302 2.253H6.56005V5.13184L2.17302 6.63384V2.253ZM6.56005 15.6041H2.17302V11.2233L6.56005 12.767V15.6041ZM15.2931 11.0981L10.9471 9.5544V8.30273L15.2931 6.75901V11.0981ZM15.2931 4.38084L8.73306 6.71729V11.1398L15.2931 13.4763V15.6041H8.73306V11.1398L2.37802 8.92857L8.73306 6.71729V2.253H15.2931V4.38084Z" fill="#ED1C24"/>
<path id="Vector_2" d="M27.0599 7.38495H25.0509V5.54917H29.8069V3.33789H22.7139V14.5612H27.0189C28.9459 14.6446 30.5449 13.1426 30.6269 11.2234C30.6269 11.14 30.6269 11.0565 30.6269 10.9731C30.6679 8.88696 29.1509 7.38495 27.0599 7.38495ZM26.8549 12.3082H25.0509V9.59624H26.8549C27.5929 9.59624 28.1669 10.2221 28.1669 10.9731C28.1669 11.7241 27.5929 12.3082 26.8549 12.3082Z" fill="#14121A"/>
<path id="Vector_3" d="M39.8097 3.33789L34.7667 10.0135V3.33789H32.3887V14.5612H34.0697L39.1537 7.80218V14.5612H41.5317V3.33789H39.8097Z" fill="#14121A"/>
<path id="Vector_4" d="M43.7891 3.33789V14.5612H46.1671V5.59089H50.0211V3.33789H43.7891Z" fill="#14121A"/>
<path id="Vector_5" d="M71.4648 14.5195H73.8428V10.0552H77.8608V14.5195H80.2388C80.2388 10.8062 80.2388 7.05117 80.2388 3.33789H77.8608V7.80218H73.8428V3.33789H71.4648C71.4648 7.05117 71.4648 10.8062 71.4648 14.5195Z" fill="#14121A"/>
<path id="Vector_6" d="M65.6417 12.3082V10.0552H69.2496V7.80218H65.6417V5.59089H69.7826V3.33789C67.6916 3.33789 65.3547 3.33789 63.2637 3.33789V14.5195L69.7826 14.5612V12.3082H65.6417Z" fill="#14121A"/>
<path id="Vector_7" d="M52.0293 14.5612V3.33789H54.4073V12.3082H58.0564V3.33789H60.4344V12.3082H61.3364V16.4804H59.0814V14.5612C56.7033 14.5612 54.3663 14.5612 52.0293 14.5612Z" fill="#14121A"/>
<path id="Vector_8" d="M84.952 5.59089V14.5612H87.33V5.59089H90.2001V3.33789C87.494 3.33789 84.788 3.33789 82.041 3.33789V5.59089H84.952Z" fill="#14121A"/>
<path id="Vector_9" d="M96.3919 10.5174H94.4239C94.4239 11.8526 94.4239 13.1877 94.4239 14.5645H92.0459V3.34121H96.3919C98.2779 3.25776 99.8769 4.75976 99.9999 6.67899C99.9999 6.76243 99.9999 6.84588 99.9999 6.92932C99.9999 9.01544 98.5239 10.5174 96.3919 10.5174ZM96.1869 5.55249H94.4239V8.30616H96.1869C96.9249 8.30616 97.5399 7.68033 97.5399 6.92932C97.5399 6.17832 96.9249 5.55249 96.1869 5.55249Z" fill="#14121A"/>
</g>
</svg>
