<svg width="13" height="3" viewBox="0 0 13 3" fill="none" xmlns="http://www.w3.org/2000/svg">
<g id="Group 637345705">
<g id="Group 637345702">
<path id="Fill 7" d="M11.5 3C10.6724 3 10 2.32735 10 1.50063C10 0.673904 10.6724 0 11.5 0C12.3276 0 13 0.673904 13 1.50063C13 2.32735 12.3276 3 11.5 3Z" fill="#14121A"/>
</g>
<g id="Group 637345703">
<path id="Fill 7_2" d="M6.5 3C5.67237 3 5 2.32735 5 1.50063C5 0.673904 5.67237 0 6.5 0C7.32763 0 8 0.673904 8 1.50063C8 2.32735 7.32763 3 6.5 3Z" fill="#14121A"/>
</g>
<g id="Group 637345704">
<path id="Fill 7_3" d="M1.5 3C0.672371 3 0 2.32735 0 1.50063C0 0.673904 0.672371 0 1.5 0C2.32763 0 3 0.673904 3 1.50063C3 2.32735 2.32763 3 1.5 3Z" fill="#14121A"/>
</g>
</g>
</svg>
