<svg width="18" height="18" viewBox="0 0 18 18" fill="none" xmlns="http://www.w3.org/2000/svg">
<g id="Frame 1221213682">
<path id="Vector" fill-rule="evenodd" clip-rule="evenodd" d="M15.3204 10.8018C14.5121 10.8018 13.8548 11.4669 13.8548 12.2877C13.8548 13.1085 14.5121 13.7736 15.3204 13.7736C16.1288 13.7736 16.7908 13.1085 16.7908 12.2877C16.7908 11.4669 16.1335 10.8018 15.3204 10.8018ZM0.983114 8.37682L1.24433 9.19091H0.983114V8.37682ZM2.09256 9.19091H2.67008L1.68982 6.11528H1.1123L2.09256 9.19091ZM5.97467 6.11528L6.95684 9.19091H6.37931L5.39525 6.11528H5.97467ZM7.80507 9.19091H8.38449L7.40232 6.11528H6.8248L7.80507 9.19091ZM4.54607 6.11528H3.96855L4.94881 9.19091H5.52823L4.54607 6.11528ZM3.11747 6.11528L4.09963 9.19091H3.52211L2.53805 6.11528H3.11747ZM8.67894 7.45125L8.25056 6.11528H8.73689L8.67894 7.45125ZM7.98934 4.86099L5.66406 2.23229C5.30121 1.90551 4.92697 1.94011 4.53847 2.23229L1.52454 4.86099H7.98934ZM8.78248 5.12338L8.82427 4.19974H13.5214V4.98786H10.5511L10.3184 10.1828H5.70491C5.90818 10.35 6.08771 10.5471 6.23494 10.7672H10.9007L11.1439 5.59722C12.5782 5.63567 13.7854 5.6943 14.4029 5.78272L15.9369 7.97988L16.921 8.32204C16.9969 8.46909 17.0644 8.61615 17.1242 8.7632H16.7015V9.49847H17.355C17.3949 9.65321 17.4348 9.83871 17.4462 9.94828C17.5992 9.99441 17.753 10.0386 17.9041 10.0857C17.8566 10.3433 17.8404 10.9123 17.8005 11.2583C17.9278 11.5764 18 11.9234 18 12.2867C18 13.7842 16.8003 15 15.3185 15C13.8367 15 12.6389 13.7851 12.6389 12.2867C12.6389 12.1579 12.6494 12.0311 12.6646 11.9061H10.9073L10.6642 12.452H6.68802C6.60443 13.8726 5.43895 15 4.01225 15C2.58554 15 1.33266 13.7851 1.33266 12.2867C1.33266 12.1214 1.34691 11.9599 1.37446 11.8033L0.882429 11.6562C0.870081 11.3602 0.858683 11.0632 0.844435 10.7672H1.7924C1.93963 10.5471 2.11726 10.35 2.32053 10.1828H0V5.12338H8.78058H8.78248ZM4.01319 10.8018C3.20201 10.8018 2.5447 11.4669 2.5447 12.2877C2.5447 13.1085 3.20201 13.7736 4.01319 13.7736C4.82438 13.7736 5.48169 13.1085 5.48169 12.2877C5.48169 11.4669 4.82438 10.8018 4.01319 10.8018ZM15.2302 8.33838C14.9671 7.81456 14.2575 6.71214 13.9716 6.2681C13.3855 6.20178 12.6408 6.19985 11.8506 6.17102C11.8401 6.76404 11.8287 7.35418 11.8183 7.94528L13.8681 8.0039L14.0808 8.29993L15.2302 8.33838ZM11.7993 8.34415L11.7793 8.73533C11.7793 8.73533 12.5943 8.72283 12.7235 8.6123C12.8508 8.50369 12.7852 8.39701 12.7852 8.39701L11.7993 8.34415Z" fill="#ED1C24"/>
</g>
</svg>
