<svg width="18" height="18" viewBox="0 0 18 18" fill="none" xmlns="http://www.w3.org/2000/svg">
<g id="Frame 1221213684">
<g id="Group 637345763">
<g id="Vector">
<path fill-rule="evenodd" clip-rule="evenodd" d="M3.735 16.13C5.79778 16.13 7.47 14.4578 7.47 12.395C7.47 10.3322 5.79778 8.66 3.735 8.66C1.67222 8.66 0 10.3322 0 12.395C0 14.4578 1.67222 16.13 3.735 16.13ZM3.735 14.42C4.85338 14.42 5.76 13.5134 5.76 12.395C5.76 11.2766 4.85338 10.37 3.735 10.37C2.61662 10.37 1.71 11.2766 1.71 12.395C1.71 13.5134 2.61662 14.42 3.735 14.42Z" fill="#ED1C24"/>
<path fill-rule="evenodd" clip-rule="evenodd" d="M13.86 16.13C15.2518 16.13 16.38 15.0017 16.38 13.61C16.38 12.2183 15.2518 11.09 13.86 11.09C12.4682 11.09 11.34 12.2183 11.34 13.61C11.34 15.0017 12.4682 16.13 13.86 16.13ZM13.86 15.05C14.6553 15.05 15.3 14.4053 15.3 13.61C15.3 12.8147 14.6553 12.17 13.86 12.17C13.0647 12.17 12.42 12.8147 12.42 13.61C12.42 14.4053 13.0647 15.05 13.86 15.05Z" fill="#ED1C24"/>
<path fill-rule="evenodd" clip-rule="evenodd" d="M3.53605 7.40557C3.3498 7.48297 3.18118 7.59165 3.0368 7.72578C2.71035 7.75788 1.88833 7.99363 1.51813 8.1075C1.46468 8.11015 1.46358 8.18596 1.51703 8.1902C2.52625 8.12867 4.80686 8.18392 5.8555 8.89713C6.4709 9.31567 8 10.5 8.24569 12.4871C8.37326 12.6194 8.64429 12.9196 8.72025 13.0762H10.935C10.9477 13.0073 10.965 12.9327 10.9872 12.8536C11.0793 12.5027 11.2341 12.1771 11.4388 11.8895C11.8823 11.2379 12.6355 10.64 13.815 10.64C13.9373 10.6343 14.0898 10.6413 14.2612 10.6669C15.2859 10.8052 16.1448 11.4662 16.5608 12.3727C16.8244 12.0184 16.9261 11.5743 16.8404 11.1448L16.6624 10.2509C16.5599 9.73774 16.2034 9.30566 15.7075 9.0936L14.2356 8.4643C13.5722 8.18066 12.8646 8.00465 12.1417 7.94368L11.7885 7.91399V9.46524C11.7885 9.68472 11.6028 9.86339 11.3746 9.86339C11.1465 9.86339 10.9608 9.68472 10.9608 9.46524V7.83606C10.8318 7.79736 10.7343 7.69026 10.7167 7.55719C10.4935 5.89779 10.1425 4.62594 9.42283 3.45429H9.97993C10.0995 3.45429 10.1959 3.36098 10.1959 3.24647V2.84249C10.1959 2.73645 10.0946 2.65746 9.98655 2.67973L9.50493 2.77993C9.30105 2.82234 9.09276 2.84354 8.88446 2.84354H4.41331C4.23808 2.84354 4.09591 2.98033 4.09591 3.14892C4.09591 3.31751 4.23808 3.45429 4.41331 3.45429H4.44912C4.11078 4.95146 3.96421 5.90151 3.92563 6.86746C3.91627 7.10444 3.76253 7.31173 3.53605 7.40557ZM5.71707 3.69498C5.89892 3.69498 6.04604 3.83653 6.04604 4.01149L6.0466 7.35997L5.17044 7.21577C4.9098 7.17336 4.71969 6.95599 4.71969 6.70205V4.03852C4.71969 3.84873 4.87949 3.69498 5.07676 3.69498H5.71707ZM9.8576 10.9385H9.28507L9.28562 10.9396C9.05694 10.9396 8.86132 10.7837 8.81558 10.5685C8.53069 9.22401 7.76915 8.17324 6.4709 7.45222C6.44665 7.43897 6.43177 7.41405 6.43177 7.38754V3.9362C6.43177 3.80366 6.54363 3.69604 6.6814 3.69604H8.82771C8.99412 3.69604 9.14786 3.77875 9.23548 3.91447C10.2323 5.45458 10.4852 7.7682 10.3365 10.5017C10.3227 10.7466 10.1127 10.9385 9.8576 10.9385Z" fill="#ED1C24"/>
<path fill-rule="evenodd" clip-rule="evenodd" d="M12.3026 2.39556L11.8303 2.66435C11.6849 2.74706 11.5945 2.89974 11.5945 3.06197V3.89326C11.7807 3.90704 11.929 4.05814 11.929 4.24105V6.26997C11.929 6.45287 11.7807 6.60397 11.5945 6.61775V9.46577C11.5945 9.58346 11.4953 9.67836 11.3735 9.67836C11.2517 9.67836 11.1526 9.58293 11.1526 9.46577V6.61351C10.9823 6.58488 10.8522 6.44121 10.8522 6.26997V4.24105C10.8522 4.06927 10.9828 3.92613 11.1526 3.8975V3.0625C11.1526 2.75024 11.3261 2.45759 11.605 2.29854L12.0772 2.02975C12.1824 1.96984 12.318 2.00324 12.3803 2.1045C12.4425 2.20576 12.4078 2.33565 12.3026 2.39556ZM16.8114 13.2761C16.8714 13.3662 16.9764 13.4261 17.0961 13.4261H17.6615C17.8824 13.4261 18.0439 13.2262 17.9893 13.0205L17.8213 12.3838C17.7832 12.2396 17.6488 12.1388 17.4939 12.1388H17.0972L17.0961 12.1394C16.9098 12.1394 16.7583 12.2846 16.7583 12.4643V12.9584C16.7816 13.0623 16.7994 13.1683 16.8114 13.2761Z" fill="#ED1C24"/>
</g>
</g>
</g>
</svg>
