<svg width="18" height="18" viewBox="0 0 18 18" fill="none" xmlns="http://www.w3.org/2000/svg">
<g id="Frame 1221213682">
<g id="Vector">
<path d="M11.3042 5.15319C11.2702 5.01872 11.3538 4.88323 11.4918 4.85012C11.6293 4.81702 11.7688 4.89902 11.8028 5.03298C11.8258 5.12365 13.4669 11.648 13.6577 12.4544C13.7973 13.0442 14.2149 13.1573 14.586 13.2118L17.7293 13.4211C17.8913 13.4379 18 13.469 18 13.5597C18 13.6371 17.885 13.7099 17.7434 13.7099H14.5964C14.2421 13.7099 13.3932 13.5821 13.1575 12.5878C12.9673 11.7851 11.3272 5.24386 11.3042 5.15319ZM1.37774 11.2823H0V11.1906C0 10.8101 0.331888 10.503 0.722318 10.503H2.15494C2.27306 8.49866 2.66558 7.12187 2.98441 6.35172C3.28441 5.62741 3.74383 4.89138 4.09454 4.89138H7.01675C7.79605 4.89138 8.60983 5.59735 9.43564 6.97568C9.49574 7.07602 9.55324 7.18299 9.60916 7.28181L8.53979 2.92169C8.44885 2.55189 8.683 2.18057 9.06298 2.09194L9.37501 2.0191C9.75446 1.93048 10.1355 2.15867 10.2264 2.52846L12.7012 12.6189C12.3281 12.272 11.8232 12.0586 11.2671 12.0586C10.1188 12.0586 9.18737 12.9876 9.18737 14.1067C9.18737 14.5748 9.35044 15.0261 9.6238 15.3699H3.81962C3.94506 15.0837 4.01667 14.882 4.01667 14.613C4.01667 13.7705 3.31577 13.0712 2.45129 13.0712C1.5868 13.0712 0.885911 13.7649 0.885911 14.6074C0.885911 14.8764 0.957516 15.0832 1.08296 15.3694H0.723363C0.332934 15.3694 0.00104703 15.0124 0.00104703 14.6324V12.7936H1.37879C1.46398 12.7936 1.53297 12.7263 1.53297 12.6433V12.5791C1.53297 12.4961 1.46398 12.4289 1.37879 12.4289H0.00104703V12.22H1.37879C1.46398 12.22 1.53297 12.1528 1.53297 12.0698V12.0056C1.53297 11.9226 1.46398 11.8553 1.37879 11.8553H0.00104703V11.6465H1.37879C1.46398 11.6465 1.53297 11.5793 1.53297 11.4962V11.4321C1.53297 11.349 1.46398 11.2818 1.37879 11.2818L1.37774 11.2823ZM10.425 8.9958C10.4313 9.0121 10.4345 9.0284 10.436 9.0447L10.805 10.5412C10.8578 10.7561 11.0794 10.8886 11.3 10.8376L11.4813 10.7954C11.7019 10.7439 11.8383 10.528 11.7855 10.313L9.93635 2.84325C9.88356 2.6283 9.66195 2.49586 9.44139 2.5468L9.26003 2.58908C9.03946 2.64052 8.90304 2.85649 8.95583 3.07144L10.423 8.9902C10.423 8.9902 10.4245 8.99478 10.425 8.9958ZM3.71404 10.5035C3.71195 10.4943 3.70934 10.4852 3.70777 10.4755L3.39784 8.57863C3.36334 8.36623 3.51334 8.16453 3.73129 8.1304C3.94925 8.09678 4.15622 8.24297 4.19123 8.45537L4.50118 10.3527C4.51006 10.4088 4.5064 10.4638 4.49177 10.5152C4.68515 10.5499 4.99719 10.665 5.37141 10.8657H6.57405C6.81082 10.8657 7.00421 11.0541 7.00421 11.2849C7.00421 11.5156 6.81919 11.6954 6.58974 11.7036C6.86361 11.9363 7.13906 12.2037 7.40196 12.5078H9.48686L8.96472 10.1633C8.95845 10.1352 8.95845 10.1093 8.96367 10.0807L8.35895 10.2086C8.27794 10.2259 8.19745 10.176 8.1802 10.097C8.16243 10.0181 8.21418 9.94066 8.29519 9.92334L10.1543 9.51025L10.056 9.11142C9.63425 8.02598 8.29414 5.29276 7.01675 5.29276H4.11336C4.0266 5.34981 3.67066 5.66459 3.2933 6.62575C3.00636 7.35668 2.65304 8.61378 2.54119 10.5035H3.71404Z" fill="#ED1C24"/>
<path fill-rule="evenodd" clip-rule="evenodd" d="M11.2909 16C12.3151 16 13.1455 15.1675 13.1455 14.1406C13.1455 13.1137 12.3151 12.2812 11.2909 12.2812C10.2667 12.2812 9.43636 13.1137 9.43636 14.1406C9.43636 15.1675 10.2667 16 11.2909 16ZM11.2909 15.125C11.8332 15.125 12.2727 14.6843 12.2727 14.1406C12.2727 13.597 11.8332 13.1562 11.2909 13.1562C10.7487 13.1562 10.3091 13.597 10.3091 14.1406C10.3091 14.6843 10.7487 15.125 11.2909 15.125Z" fill="#ED1C24"/>
<path fill-rule="evenodd" clip-rule="evenodd" d="M2.45455 15.8906C3.17754 15.8906 3.76364 15.303 3.76364 14.5781C3.76364 13.8532 3.17754 13.2656 2.45455 13.2656C1.73156 13.2656 1.14545 13.8532 1.14545 14.5781C1.14545 15.303 1.73156 15.8906 2.45455 15.8906ZM2.45455 15.2891C2.84616 15.2891 3.16364 14.9708 3.16364 14.5781C3.16364 14.1855 2.84616 13.8672 2.45455 13.8672C2.06293 13.8672 1.74545 14.1855 1.74545 14.5781C1.74545 14.9708 2.06293 15.2891 2.45455 15.2891Z" fill="#ED1C24"/>
</g>
</g>
</svg>
