<svg width="18" height="18" viewBox="0 0 18 18" fill="none" xmlns="http://www.w3.org/2000/svg">
<g id="Frame 1221213682">
<path id="Vector" fill-rule="evenodd" clip-rule="evenodd" d="M10.7282 12.4262H3.30158C2.69571 12.4262 2.14672 12.6826 1.74852 13.0977C1.35123 13.5109 1.10292 14.0819 1.10292 14.7131C1.10292 15.3433 1.35123 15.9143 1.74852 16.3285C2.14582 16.7417 2.69481 17 3.30158 17H10.7282C11.3341 17 11.8831 16.7417 12.2831 16.3285C12.6804 15.9152 12.9287 15.3433 12.9287 14.7131C12.9287 14.0829 12.6804 13.5119 12.2831 13.0977C11.8831 12.6816 11.3341 12.4262 10.7282 12.4262ZM17 8.15943L14.3318 8.50786C14.2181 8.26743 13.7377 7.38929 13.7377 7.38929L13.4858 7.55835L14.9702 11.2963L16.8257 10.0303L17 8.15943ZM16.4853 1.81522L16.8411 7.9622L15.9129 8.04297L14.9738 3.92839L16.4853 1.81522ZM10.4122 6.14675C11.1264 6.34586 11.7205 6.65485 12.1982 7.07279L16.1449 1.52031L15.4668 1L10.4122 6.14675ZM9.70971 15.7941H8.10428C8.19548 15.4193 8.52054 15.1423 8.90699 15.1423C9.29345 15.1423 9.62122 15.4203 9.70971 15.7941ZM7.8009 15.7941H6.19548C6.28668 15.4193 6.60993 15.1423 6.99819 15.1423C7.38645 15.1423 7.71061 15.4203 7.8009 15.7941ZM5.87314 15.7941H4.26952C4.35891 15.4193 4.68397 15.1423 5.07223 15.1423C5.46049 15.1423 5.78465 15.4203 5.87314 15.7941ZM4.26952 13.6133H5.87314C5.78375 13.988 5.46049 14.2651 5.07223 14.2651C4.68397 14.2651 4.35891 13.9871 4.26952 13.6133ZM6.18014 13.6133H7.78555C7.69436 13.988 7.3693 14.2651 6.98284 14.2651C6.59639 14.2651 6.27043 13.9871 6.18014 13.6133ZM8.10428 13.6133H9.70971C9.62031 13.988 9.29526 14.2651 8.90699 14.2651C8.51873 14.2651 8.19458 13.9871 8.10428 13.6133ZM9.17246 7.33764V9.6302H8.51693V7.24935C8.74808 7.27096 8.96388 7.30007 9.17246 7.33764ZM9.80903 9.6302V7.48885C10.479 7.68984 11.0208 7.99507 11.4379 8.40268C11.7792 8.73984 12.0402 9.14933 12.2262 9.6302H9.80993H9.80903ZM3.29887 13.6997C3.82167 13.6997 4.24605 14.1411 4.24605 14.6868C4.24605 15.2324 3.82167 15.6739 3.29887 15.6739C2.77607 15.6739 2.35169 15.2306 2.35169 14.6868C2.35169 14.143 2.77607 13.6997 3.29887 13.6997ZM10.6307 13.6997C11.1535 13.6997 11.5779 14.1411 11.5779 14.6868C11.5779 15.2324 11.1535 15.6739 10.6307 15.6739C10.1079 15.6739 9.68171 15.2306 9.68171 14.6868C9.68171 14.143 10.1061 13.6997 10.6307 13.6997ZM7.64289 6.76473V6.29044L8.09706 6.31017C9.84695 6.3853 11.1499 6.8718 12.0357 7.74243C12.9332 8.62245 13.3874 9.87157 13.4298 11.4607L13.4433 11.9237L12.9982 11.9274L8.08442 11.9669L7.64289 11.9707V11.5133H1V9.26015H7.64289V6.76473ZM3.30248 13.3372H10.7291C11.093 13.3372 11.4226 13.4912 11.6646 13.741C11.9029 13.9908 12.051 14.3336 12.051 14.7121C12.051 15.0906 11.9029 15.4334 11.6646 15.6833C11.4226 15.9312 11.093 16.0871 10.7291 16.0871H3.30248C2.9386 16.0871 2.60902 15.9312 2.37065 15.6833C2.12956 15.4334 1.98059 15.0906 1.98059 14.7121C1.98059 14.3336 2.13047 13.9908 2.37065 13.741C2.60902 13.4912 2.9386 13.3372 3.30248 13.3372Z" fill="#ED1C24"/>
</g>
</svg>
